<mxfile host="app.diagrams.net" agent="Mozilla/5.0 (Macintosh; Intel Mac OS X 10_15_7) AppleWebKit/537.36 (KHTML, like Gecko) Chrome/138.0.0.0 Safari/537.36 Edg/138.0.0.0" version="28.0.6">
  <diagram name="第 1 页" id="KlJC6zhfKSW6DCbhA5ee">
    <mxGraphModel dx="1502" dy="943" grid="1" gridSize="10" guides="1" tooltips="1" connect="1" arrows="1" fold="1" page="1" pageScale="1" pageWidth="850" pageHeight="1100" math="1" shadow="0">
      <root>
        <mxCell id="0" />
        <mxCell id="1" parent="0" />
        <mxCell id="Ckq702j_ndM2lnB-2Poi-1" value="" style="endArrow=classic;html=1;rounded=0;" edge="1" parent="1">
          <mxGeometry width="50" height="50" relative="1" as="geometry">
            <mxPoint x="205" y="230" as="sourcePoint" />
            <mxPoint x="415" y="230" as="targetPoint" />
          </mxGeometry>
        </mxCell>
        <mxCell id="Ckq702j_ndM2lnB-2Poi-2" value="" style="endArrow=classic;html=1;rounded=0;" edge="1" parent="1">
          <mxGeometry width="50" height="50" relative="1" as="geometry">
            <mxPoint x="205" y="230" as="sourcePoint" />
            <mxPoint x="205" y="50" as="targetPoint" />
          </mxGeometry>
        </mxCell>
        <mxCell id="Ckq702j_ndM2lnB-2Poi-14" value="" style="group" vertex="1" connectable="0" parent="1">
          <mxGeometry x="205" y="210" width="220" height="25" as="geometry" />
        </mxCell>
        <mxCell id="Ckq702j_ndM2lnB-2Poi-3" value="" style="rounded=0;whiteSpace=wrap;html=1;" vertex="1" parent="Ckq702j_ndM2lnB-2Poi-14">
          <mxGeometry width="20" height="20" as="geometry" />
        </mxCell>
        <mxCell id="Ckq702j_ndM2lnB-2Poi-4" value="" style="rounded=0;whiteSpace=wrap;html=1;" vertex="1" parent="Ckq702j_ndM2lnB-2Poi-14">
          <mxGeometry x="20" width="20" height="20" as="geometry" />
        </mxCell>
        <mxCell id="Ckq702j_ndM2lnB-2Poi-5" value="" style="rounded=0;whiteSpace=wrap;html=1;" vertex="1" parent="Ckq702j_ndM2lnB-2Poi-14">
          <mxGeometry x="60" width="20" height="20" as="geometry" />
        </mxCell>
        <mxCell id="Ckq702j_ndM2lnB-2Poi-6" value="" style="rounded=0;whiteSpace=wrap;html=1;" vertex="1" parent="Ckq702j_ndM2lnB-2Poi-14">
          <mxGeometry x="40" width="20" height="20" as="geometry" />
        </mxCell>
        <mxCell id="Ckq702j_ndM2lnB-2Poi-8" value="" style="rounded=0;whiteSpace=wrap;html=1;" vertex="1" parent="Ckq702j_ndM2lnB-2Poi-14">
          <mxGeometry x="80" width="20" height="20" as="geometry" />
        </mxCell>
        <mxCell id="Ckq702j_ndM2lnB-2Poi-9" value="" style="rounded=0;whiteSpace=wrap;html=1;" vertex="1" parent="Ckq702j_ndM2lnB-2Poi-14">
          <mxGeometry x="140" width="20" height="20" as="geometry" />
        </mxCell>
        <mxCell id="Ckq702j_ndM2lnB-2Poi-10" value="" style="rounded=0;whiteSpace=wrap;html=1;" vertex="1" parent="Ckq702j_ndM2lnB-2Poi-14">
          <mxGeometry x="120" width="20" height="20" as="geometry" />
        </mxCell>
        <mxCell id="Ckq702j_ndM2lnB-2Poi-11" value="" style="rounded=0;whiteSpace=wrap;html=1;" vertex="1" parent="Ckq702j_ndM2lnB-2Poi-14">
          <mxGeometry x="160" width="20" height="20" as="geometry" />
        </mxCell>
        <mxCell id="Ckq702j_ndM2lnB-2Poi-12" value="" style="rounded=0;whiteSpace=wrap;html=1;" vertex="1" parent="Ckq702j_ndM2lnB-2Poi-14">
          <mxGeometry x="100" width="20" height="20" as="geometry" />
        </mxCell>
        <mxCell id="Ckq702j_ndM2lnB-2Poi-117" value="&lt;font face=&quot;Times New Roman&quot; style=&quot;font-size: 10px;&quot;&gt;Time&lt;/font&gt;" style="text;html=1;align=center;verticalAlign=middle;resizable=0;points=[];autosize=1;strokeColor=none;fillColor=none;" vertex="1" parent="Ckq702j_ndM2lnB-2Poi-14">
          <mxGeometry x="180" y="-5" width="40" height="30" as="geometry" />
        </mxCell>
        <mxCell id="Ckq702j_ndM2lnB-2Poi-15" value="" style="group" vertex="1" connectable="0" parent="1">
          <mxGeometry x="205" y="190" width="200" height="20" as="geometry" />
        </mxCell>
        <mxCell id="Ckq702j_ndM2lnB-2Poi-16" value="" style="rounded=0;whiteSpace=wrap;html=1;" vertex="1" parent="Ckq702j_ndM2lnB-2Poi-15">
          <mxGeometry width="20" height="20" as="geometry" />
        </mxCell>
        <mxCell id="Ckq702j_ndM2lnB-2Poi-17" value="" style="rounded=0;whiteSpace=wrap;html=1;" vertex="1" parent="Ckq702j_ndM2lnB-2Poi-15">
          <mxGeometry x="20" width="20" height="20" as="geometry" />
        </mxCell>
        <mxCell id="Ckq702j_ndM2lnB-2Poi-18" value="" style="rounded=0;whiteSpace=wrap;html=1;" vertex="1" parent="Ckq702j_ndM2lnB-2Poi-15">
          <mxGeometry x="60" width="20" height="20" as="geometry" />
        </mxCell>
        <mxCell id="Ckq702j_ndM2lnB-2Poi-19" value="" style="rounded=0;whiteSpace=wrap;html=1;" vertex="1" parent="Ckq702j_ndM2lnB-2Poi-15">
          <mxGeometry x="40" width="20" height="20" as="geometry" />
        </mxCell>
        <mxCell id="Ckq702j_ndM2lnB-2Poi-20" value="" style="rounded=0;whiteSpace=wrap;html=1;" vertex="1" parent="Ckq702j_ndM2lnB-2Poi-15">
          <mxGeometry x="80" width="20" height="20" as="geometry" />
        </mxCell>
        <mxCell id="Ckq702j_ndM2lnB-2Poi-21" value="" style="rounded=0;whiteSpace=wrap;html=1;" vertex="1" parent="Ckq702j_ndM2lnB-2Poi-15">
          <mxGeometry x="140" width="20" height="20" as="geometry" />
        </mxCell>
        <mxCell id="Ckq702j_ndM2lnB-2Poi-22" value="" style="rounded=0;whiteSpace=wrap;html=1;" vertex="1" parent="Ckq702j_ndM2lnB-2Poi-15">
          <mxGeometry x="120" width="20" height="20" as="geometry" />
        </mxCell>
        <mxCell id="Ckq702j_ndM2lnB-2Poi-23" value="" style="rounded=0;whiteSpace=wrap;html=1;" vertex="1" parent="Ckq702j_ndM2lnB-2Poi-15">
          <mxGeometry x="160" width="20" height="20" as="geometry" />
        </mxCell>
        <mxCell id="Ckq702j_ndM2lnB-2Poi-24" value="" style="rounded=0;whiteSpace=wrap;html=1;" vertex="1" parent="Ckq702j_ndM2lnB-2Poi-15">
          <mxGeometry x="100" width="20" height="20" as="geometry" />
        </mxCell>
        <mxCell id="Ckq702j_ndM2lnB-2Poi-26" value="" style="group" vertex="1" connectable="0" parent="1">
          <mxGeometry x="205" y="150" width="200" height="20" as="geometry" />
        </mxCell>
        <mxCell id="Ckq702j_ndM2lnB-2Poi-27" value="" style="rounded=0;whiteSpace=wrap;html=1;" vertex="1" parent="Ckq702j_ndM2lnB-2Poi-26">
          <mxGeometry width="20" height="20" as="geometry" />
        </mxCell>
        <mxCell id="Ckq702j_ndM2lnB-2Poi-28" value="" style="rounded=0;whiteSpace=wrap;html=1;" vertex="1" parent="Ckq702j_ndM2lnB-2Poi-26">
          <mxGeometry x="20" width="20" height="20" as="geometry" />
        </mxCell>
        <mxCell id="Ckq702j_ndM2lnB-2Poi-29" value="" style="rounded=0;whiteSpace=wrap;html=1;" vertex="1" parent="Ckq702j_ndM2lnB-2Poi-26">
          <mxGeometry x="60" width="20" height="20" as="geometry" />
        </mxCell>
        <mxCell id="Ckq702j_ndM2lnB-2Poi-30" value="" style="rounded=0;whiteSpace=wrap;html=1;" vertex="1" parent="Ckq702j_ndM2lnB-2Poi-26">
          <mxGeometry x="40" width="20" height="20" as="geometry" />
        </mxCell>
        <mxCell id="Ckq702j_ndM2lnB-2Poi-31" value="" style="rounded=0;whiteSpace=wrap;html=1;" vertex="1" parent="Ckq702j_ndM2lnB-2Poi-26">
          <mxGeometry x="80" width="20" height="20" as="geometry" />
        </mxCell>
        <mxCell id="Ckq702j_ndM2lnB-2Poi-32" value="" style="rounded=0;whiteSpace=wrap;html=1;" vertex="1" parent="Ckq702j_ndM2lnB-2Poi-26">
          <mxGeometry x="140" width="20" height="20" as="geometry" />
        </mxCell>
        <mxCell id="Ckq702j_ndM2lnB-2Poi-33" value="" style="rounded=0;whiteSpace=wrap;html=1;" vertex="1" parent="Ckq702j_ndM2lnB-2Poi-26">
          <mxGeometry x="120" width="20" height="20" as="geometry" />
        </mxCell>
        <mxCell id="Ckq702j_ndM2lnB-2Poi-34" value="" style="rounded=0;whiteSpace=wrap;html=1;" vertex="1" parent="Ckq702j_ndM2lnB-2Poi-26">
          <mxGeometry x="160" width="20" height="20" as="geometry" />
        </mxCell>
        <mxCell id="Ckq702j_ndM2lnB-2Poi-35" value="" style="rounded=0;whiteSpace=wrap;html=1;" vertex="1" parent="Ckq702j_ndM2lnB-2Poi-26">
          <mxGeometry x="100" width="20" height="20" as="geometry" />
        </mxCell>
        <mxCell id="Ckq702j_ndM2lnB-2Poi-37" value="" style="group" vertex="1" connectable="0" parent="1">
          <mxGeometry x="205" y="170" width="200" height="20" as="geometry" />
        </mxCell>
        <mxCell id="Ckq702j_ndM2lnB-2Poi-38" value="" style="rounded=0;whiteSpace=wrap;html=1;" vertex="1" parent="Ckq702j_ndM2lnB-2Poi-37">
          <mxGeometry width="20" height="20" as="geometry" />
        </mxCell>
        <mxCell id="Ckq702j_ndM2lnB-2Poi-39" value="" style="rounded=0;whiteSpace=wrap;html=1;" vertex="1" parent="Ckq702j_ndM2lnB-2Poi-37">
          <mxGeometry x="20" width="20" height="20" as="geometry" />
        </mxCell>
        <mxCell id="Ckq702j_ndM2lnB-2Poi-40" value="" style="rounded=0;whiteSpace=wrap;html=1;" vertex="1" parent="Ckq702j_ndM2lnB-2Poi-37">
          <mxGeometry x="60" width="20" height="20" as="geometry" />
        </mxCell>
        <mxCell id="Ckq702j_ndM2lnB-2Poi-41" value="" style="rounded=0;whiteSpace=wrap;html=1;" vertex="1" parent="Ckq702j_ndM2lnB-2Poi-37">
          <mxGeometry x="40" width="20" height="20" as="geometry" />
        </mxCell>
        <mxCell id="Ckq702j_ndM2lnB-2Poi-42" value="" style="rounded=0;whiteSpace=wrap;html=1;" vertex="1" parent="Ckq702j_ndM2lnB-2Poi-37">
          <mxGeometry x="80" width="20" height="20" as="geometry" />
        </mxCell>
        <mxCell id="Ckq702j_ndM2lnB-2Poi-43" value="" style="rounded=0;whiteSpace=wrap;html=1;" vertex="1" parent="Ckq702j_ndM2lnB-2Poi-37">
          <mxGeometry x="140" width="20" height="20" as="geometry" />
        </mxCell>
        <mxCell id="Ckq702j_ndM2lnB-2Poi-44" value="" style="rounded=0;whiteSpace=wrap;html=1;" vertex="1" parent="Ckq702j_ndM2lnB-2Poi-37">
          <mxGeometry x="120" width="20" height="20" as="geometry" />
        </mxCell>
        <mxCell id="Ckq702j_ndM2lnB-2Poi-45" value="" style="rounded=0;whiteSpace=wrap;html=1;" vertex="1" parent="Ckq702j_ndM2lnB-2Poi-37">
          <mxGeometry x="160" width="20" height="20" as="geometry" />
        </mxCell>
        <mxCell id="Ckq702j_ndM2lnB-2Poi-46" value="" style="rounded=0;whiteSpace=wrap;html=1;" vertex="1" parent="Ckq702j_ndM2lnB-2Poi-37">
          <mxGeometry x="100" width="20" height="20" as="geometry" />
        </mxCell>
        <mxCell id="Ckq702j_ndM2lnB-2Poi-48" value="" style="group" vertex="1" connectable="0" parent="1">
          <mxGeometry x="205" y="130" width="200" height="20" as="geometry" />
        </mxCell>
        <mxCell id="Ckq702j_ndM2lnB-2Poi-49" value="" style="rounded=0;whiteSpace=wrap;html=1;" vertex="1" parent="Ckq702j_ndM2lnB-2Poi-48">
          <mxGeometry width="20" height="20" as="geometry" />
        </mxCell>
        <mxCell id="Ckq702j_ndM2lnB-2Poi-50" value="" style="rounded=0;whiteSpace=wrap;html=1;" vertex="1" parent="Ckq702j_ndM2lnB-2Poi-48">
          <mxGeometry x="20" width="20" height="20" as="geometry" />
        </mxCell>
        <mxCell id="Ckq702j_ndM2lnB-2Poi-51" value="" style="rounded=0;whiteSpace=wrap;html=1;" vertex="1" parent="Ckq702j_ndM2lnB-2Poi-48">
          <mxGeometry x="60" width="20" height="20" as="geometry" />
        </mxCell>
        <mxCell id="Ckq702j_ndM2lnB-2Poi-52" value="" style="rounded=0;whiteSpace=wrap;html=1;" vertex="1" parent="Ckq702j_ndM2lnB-2Poi-48">
          <mxGeometry x="40" width="20" height="20" as="geometry" />
        </mxCell>
        <mxCell id="Ckq702j_ndM2lnB-2Poi-53" value="" style="rounded=0;whiteSpace=wrap;html=1;" vertex="1" parent="Ckq702j_ndM2lnB-2Poi-48">
          <mxGeometry x="80" width="20" height="20" as="geometry" />
        </mxCell>
        <mxCell id="Ckq702j_ndM2lnB-2Poi-54" value="" style="rounded=0;whiteSpace=wrap;html=1;" vertex="1" parent="Ckq702j_ndM2lnB-2Poi-48">
          <mxGeometry x="140" width="20" height="20" as="geometry" />
        </mxCell>
        <mxCell id="Ckq702j_ndM2lnB-2Poi-55" value="" style="rounded=0;whiteSpace=wrap;html=1;" vertex="1" parent="Ckq702j_ndM2lnB-2Poi-48">
          <mxGeometry x="120" width="20" height="20" as="geometry" />
        </mxCell>
        <mxCell id="Ckq702j_ndM2lnB-2Poi-56" value="" style="rounded=0;whiteSpace=wrap;html=1;" vertex="1" parent="Ckq702j_ndM2lnB-2Poi-48">
          <mxGeometry x="160" width="20" height="20" as="geometry" />
        </mxCell>
        <mxCell id="Ckq702j_ndM2lnB-2Poi-57" value="" style="rounded=0;whiteSpace=wrap;html=1;" vertex="1" parent="Ckq702j_ndM2lnB-2Poi-48">
          <mxGeometry x="100" width="20" height="20" as="geometry" />
        </mxCell>
        <mxCell id="Ckq702j_ndM2lnB-2Poi-59" value="" style="group" vertex="1" connectable="0" parent="1">
          <mxGeometry x="205" y="110" width="200" height="20" as="geometry" />
        </mxCell>
        <mxCell id="Ckq702j_ndM2lnB-2Poi-60" value="" style="rounded=0;whiteSpace=wrap;html=1;" vertex="1" parent="Ckq702j_ndM2lnB-2Poi-59">
          <mxGeometry width="20" height="20" as="geometry" />
        </mxCell>
        <mxCell id="Ckq702j_ndM2lnB-2Poi-61" value="" style="rounded=0;whiteSpace=wrap;html=1;" vertex="1" parent="Ckq702j_ndM2lnB-2Poi-59">
          <mxGeometry x="20" width="20" height="20" as="geometry" />
        </mxCell>
        <mxCell id="Ckq702j_ndM2lnB-2Poi-62" value="" style="rounded=0;whiteSpace=wrap;html=1;" vertex="1" parent="Ckq702j_ndM2lnB-2Poi-59">
          <mxGeometry x="60" width="20" height="20" as="geometry" />
        </mxCell>
        <mxCell id="Ckq702j_ndM2lnB-2Poi-63" value="" style="rounded=0;whiteSpace=wrap;html=1;" vertex="1" parent="Ckq702j_ndM2lnB-2Poi-59">
          <mxGeometry x="40" width="20" height="20" as="geometry" />
        </mxCell>
        <mxCell id="Ckq702j_ndM2lnB-2Poi-64" value="" style="rounded=0;whiteSpace=wrap;html=1;" vertex="1" parent="Ckq702j_ndM2lnB-2Poi-59">
          <mxGeometry x="80" width="20" height="20" as="geometry" />
        </mxCell>
        <mxCell id="Ckq702j_ndM2lnB-2Poi-65" value="" style="rounded=0;whiteSpace=wrap;html=1;" vertex="1" parent="Ckq702j_ndM2lnB-2Poi-59">
          <mxGeometry x="140" width="20" height="20" as="geometry" />
        </mxCell>
        <mxCell id="Ckq702j_ndM2lnB-2Poi-66" value="" style="rounded=0;whiteSpace=wrap;html=1;" vertex="1" parent="Ckq702j_ndM2lnB-2Poi-59">
          <mxGeometry x="120" width="20" height="20" as="geometry" />
        </mxCell>
        <mxCell id="Ckq702j_ndM2lnB-2Poi-67" value="" style="rounded=0;whiteSpace=wrap;html=1;" vertex="1" parent="Ckq702j_ndM2lnB-2Poi-59">
          <mxGeometry x="160" width="20" height="20" as="geometry" />
        </mxCell>
        <mxCell id="Ckq702j_ndM2lnB-2Poi-68" value="" style="rounded=0;whiteSpace=wrap;html=1;" vertex="1" parent="Ckq702j_ndM2lnB-2Poi-59">
          <mxGeometry x="100" width="20" height="20" as="geometry" />
        </mxCell>
        <mxCell id="Ckq702j_ndM2lnB-2Poi-70" value="" style="group" vertex="1" connectable="0" parent="1">
          <mxGeometry x="205" y="90" width="200" height="20" as="geometry" />
        </mxCell>
        <mxCell id="Ckq702j_ndM2lnB-2Poi-71" value="" style="rounded=0;whiteSpace=wrap;html=1;" vertex="1" parent="Ckq702j_ndM2lnB-2Poi-70">
          <mxGeometry width="20" height="20" as="geometry" />
        </mxCell>
        <mxCell id="Ckq702j_ndM2lnB-2Poi-72" value="" style="rounded=0;whiteSpace=wrap;html=1;" vertex="1" parent="Ckq702j_ndM2lnB-2Poi-70">
          <mxGeometry x="20" width="20" height="20" as="geometry" />
        </mxCell>
        <mxCell id="Ckq702j_ndM2lnB-2Poi-73" value="" style="rounded=0;whiteSpace=wrap;html=1;" vertex="1" parent="Ckq702j_ndM2lnB-2Poi-70">
          <mxGeometry x="60" width="20" height="20" as="geometry" />
        </mxCell>
        <mxCell id="Ckq702j_ndM2lnB-2Poi-74" value="" style="rounded=0;whiteSpace=wrap;html=1;" vertex="1" parent="Ckq702j_ndM2lnB-2Poi-70">
          <mxGeometry x="40" width="20" height="20" as="geometry" />
        </mxCell>
        <mxCell id="Ckq702j_ndM2lnB-2Poi-75" value="" style="rounded=0;whiteSpace=wrap;html=1;" vertex="1" parent="Ckq702j_ndM2lnB-2Poi-70">
          <mxGeometry x="80" width="20" height="20" as="geometry" />
        </mxCell>
        <mxCell id="Ckq702j_ndM2lnB-2Poi-76" value="" style="rounded=0;whiteSpace=wrap;html=1;" vertex="1" parent="Ckq702j_ndM2lnB-2Poi-70">
          <mxGeometry x="140" width="20" height="20" as="geometry" />
        </mxCell>
        <mxCell id="Ckq702j_ndM2lnB-2Poi-77" value="" style="rounded=0;whiteSpace=wrap;html=1;" vertex="1" parent="Ckq702j_ndM2lnB-2Poi-70">
          <mxGeometry x="120" width="20" height="20" as="geometry" />
        </mxCell>
        <mxCell id="Ckq702j_ndM2lnB-2Poi-78" value="" style="rounded=0;whiteSpace=wrap;html=1;" vertex="1" parent="Ckq702j_ndM2lnB-2Poi-70">
          <mxGeometry x="160" width="20" height="20" as="geometry" />
        </mxCell>
        <mxCell id="Ckq702j_ndM2lnB-2Poi-79" value="" style="rounded=0;whiteSpace=wrap;html=1;" vertex="1" parent="Ckq702j_ndM2lnB-2Poi-70">
          <mxGeometry x="100" width="20" height="20" as="geometry" />
        </mxCell>
        <mxCell id="Ckq702j_ndM2lnB-2Poi-81" value="" style="group" vertex="1" connectable="0" parent="1">
          <mxGeometry x="205" y="70" width="200" height="20" as="geometry" />
        </mxCell>
        <mxCell id="Ckq702j_ndM2lnB-2Poi-82" value="" style="rounded=0;whiteSpace=wrap;html=1;" vertex="1" parent="Ckq702j_ndM2lnB-2Poi-81">
          <mxGeometry width="20" height="20" as="geometry" />
        </mxCell>
        <mxCell id="Ckq702j_ndM2lnB-2Poi-83" value="" style="rounded=0;whiteSpace=wrap;html=1;" vertex="1" parent="Ckq702j_ndM2lnB-2Poi-81">
          <mxGeometry x="20" width="20" height="20" as="geometry" />
        </mxCell>
        <mxCell id="Ckq702j_ndM2lnB-2Poi-84" value="" style="rounded=0;whiteSpace=wrap;html=1;" vertex="1" parent="Ckq702j_ndM2lnB-2Poi-81">
          <mxGeometry x="60" width="20" height="20" as="geometry" />
        </mxCell>
        <mxCell id="Ckq702j_ndM2lnB-2Poi-85" value="" style="rounded=0;whiteSpace=wrap;html=1;" vertex="1" parent="Ckq702j_ndM2lnB-2Poi-81">
          <mxGeometry x="40" width="20" height="20" as="geometry" />
        </mxCell>
        <mxCell id="Ckq702j_ndM2lnB-2Poi-86" value="" style="rounded=0;whiteSpace=wrap;html=1;" vertex="1" parent="Ckq702j_ndM2lnB-2Poi-81">
          <mxGeometry x="80" width="20" height="20" as="geometry" />
        </mxCell>
        <mxCell id="Ckq702j_ndM2lnB-2Poi-87" value="" style="rounded=0;whiteSpace=wrap;html=1;" vertex="1" parent="Ckq702j_ndM2lnB-2Poi-81">
          <mxGeometry x="140" width="20" height="20" as="geometry" />
        </mxCell>
        <mxCell id="Ckq702j_ndM2lnB-2Poi-88" value="" style="rounded=0;whiteSpace=wrap;html=1;" vertex="1" parent="Ckq702j_ndM2lnB-2Poi-81">
          <mxGeometry x="120" width="20" height="20" as="geometry" />
        </mxCell>
        <mxCell id="Ckq702j_ndM2lnB-2Poi-89" value="" style="rounded=0;whiteSpace=wrap;html=1;" vertex="1" parent="Ckq702j_ndM2lnB-2Poi-81">
          <mxGeometry x="160" width="20" height="20" as="geometry" />
        </mxCell>
        <mxCell id="Ckq702j_ndM2lnB-2Poi-90" value="" style="rounded=0;whiteSpace=wrap;html=1;" vertex="1" parent="Ckq702j_ndM2lnB-2Poi-81">
          <mxGeometry x="100" width="20" height="20" as="geometry" />
        </mxCell>
        <mxCell id="Ckq702j_ndM2lnB-2Poi-118" value="&lt;font face=&quot;Times New Roman&quot; style=&quot;font-size: 10px;&quot;&gt;Frequency&lt;/font&gt;" style="text;html=1;align=center;verticalAlign=middle;resizable=0;points=[];autosize=1;strokeColor=none;fillColor=none;rotation=-90;" vertex="1" parent="1">
          <mxGeometry x="160" y="50" width="70" height="30" as="geometry" />
        </mxCell>
        <mxCell id="Ckq702j_ndM2lnB-2Poi-119" value="" style="endArrow=none;html=1;rounded=0;entryX=1;entryY=1;entryDx=0;entryDy=0;dashed=1;" edge="1" parent="1" target="Ckq702j_ndM2lnB-2Poi-5">
          <mxGeometry width="50" height="50" relative="1" as="geometry">
            <mxPoint x="285" y="250" as="sourcePoint" />
            <mxPoint x="405" y="180" as="targetPoint" />
          </mxGeometry>
        </mxCell>
        <mxCell id="Ckq702j_ndM2lnB-2Poi-123" value="" style="endArrow=classic;startArrow=classic;html=1;rounded=0;strokeWidth=0.5;" edge="1" parent="1">
          <mxGeometry width="50" height="50" relative="1" as="geometry">
            <mxPoint x="205" y="240" as="sourcePoint" />
            <mxPoint x="285" y="240" as="targetPoint" />
          </mxGeometry>
        </mxCell>
        <mxCell id="Ckq702j_ndM2lnB-2Poi-124" value="&lt;font face=&quot;Times New Roman&quot; style=&quot;font-size: 10px;&quot;&gt;Historical&lt;/font&gt;" style="text;html=1;align=center;verticalAlign=middle;resizable=0;points=[];autosize=1;strokeColor=none;fillColor=none;" vertex="1" parent="1">
          <mxGeometry x="215" y="230" width="60" height="30" as="geometry" />
        </mxCell>
        <mxCell id="Ckq702j_ndM2lnB-2Poi-125" value="" style="endArrow=classic;startArrow=classic;html=1;rounded=0;strokeWidth=0.5;" edge="1" parent="1">
          <mxGeometry width="50" height="50" relative="1" as="geometry">
            <mxPoint x="285" y="240" as="sourcePoint" />
            <mxPoint x="385" y="240" as="targetPoint" />
          </mxGeometry>
        </mxCell>
        <mxCell id="Ckq702j_ndM2lnB-2Poi-126" value="&lt;font face=&quot;Times New Roman&quot; style=&quot;font-size: 10px;&quot;&gt;Future&lt;/font&gt;" style="text;html=1;align=center;verticalAlign=middle;resizable=0;points=[];autosize=1;strokeColor=none;fillColor=none;" vertex="1" parent="1">
          <mxGeometry x="310" y="230" width="50" height="30" as="geometry" />
        </mxCell>
        <mxCell id="Ckq702j_ndM2lnB-2Poi-127" value="" style="rounded=0;whiteSpace=wrap;html=1;" vertex="1" parent="1">
          <mxGeometry x="60" y="60" width="120" height="170" as="geometry" />
        </mxCell>
        <mxCell id="Ckq702j_ndM2lnB-2Poi-128" value="" style="rounded=0;whiteSpace=wrap;html=1;" vertex="1" parent="1">
          <mxGeometry x="145" y="100" width="20" height="30" as="geometry" />
        </mxCell>
        <mxCell id="Ckq702j_ndM2lnB-2Poi-130" value="" style="endArrow=none;dashed=1;html=1;rounded=0;exitX=1;exitY=1;exitDx=0;exitDy=0;entryX=0;entryY=1;entryDx=0;entryDy=0;" edge="1" parent="1" source="Ckq702j_ndM2lnB-2Poi-128" target="Ckq702j_ndM2lnB-2Poi-3">
          <mxGeometry width="50" height="50" relative="1" as="geometry">
            <mxPoint x="325" y="230" as="sourcePoint" />
            <mxPoint x="205" y="240" as="targetPoint" />
          </mxGeometry>
        </mxCell>
        <mxCell id="Ckq702j_ndM2lnB-2Poi-131" value="" style="endArrow=none;dashed=1;html=1;rounded=0;exitX=1;exitY=0;exitDx=0;exitDy=0;entryX=0;entryY=0;entryDx=0;entryDy=0;" edge="1" parent="1" source="Ckq702j_ndM2lnB-2Poi-128" target="Ckq702j_ndM2lnB-2Poi-82">
          <mxGeometry width="50" height="50" relative="1" as="geometry">
            <mxPoint x="425" y="150" as="sourcePoint" />
            <mxPoint x="465" y="250" as="targetPoint" />
          </mxGeometry>
        </mxCell>
        <mxCell id="Ckq702j_ndM2lnB-2Poi-132" value="" style="endArrow=classic;startArrow=classic;html=1;rounded=0;strokeWidth=0.5;" edge="1" parent="1">
          <mxGeometry width="50" height="50" relative="1" as="geometry">
            <mxPoint x="60" y="240" as="sourcePoint" />
            <mxPoint x="180" y="240" as="targetPoint" />
          </mxGeometry>
        </mxCell>
        <mxCell id="Ckq702j_ndM2lnB-2Poi-133" value="&lt;font face=&quot;Times New Roman&quot; style=&quot;font-size: 10px;&quot;&gt;\[N_r\]&lt;/font&gt;" style="text;html=1;align=center;verticalAlign=middle;resizable=0;points=[];autosize=1;strokeColor=none;fillColor=none;" vertex="1" parent="1">
          <mxGeometry x="95" y="230" width="50" height="30" as="geometry" />
        </mxCell>
        <mxCell id="Ckq702j_ndM2lnB-2Poi-134" value="&lt;font face=&quot;Times New Roman&quot; style=&quot;font-size: 10px;&quot;&gt;\[N_t\]&lt;/font&gt;" style="text;html=1;align=center;verticalAlign=middle;resizable=0;points=[];autosize=1;strokeColor=none;fillColor=none;rotation=-90;" vertex="1" parent="1">
          <mxGeometry x="15" y="125" width="50" height="30" as="geometry" />
        </mxCell>
        <mxCell id="Ckq702j_ndM2lnB-2Poi-135" value="" style="endArrow=classic;startArrow=classic;html=1;rounded=0;strokeWidth=0.5;" edge="1" parent="1">
          <mxGeometry width="50" height="50" relative="1" as="geometry">
            <mxPoint x="50" y="230" as="sourcePoint" />
            <mxPoint x="50" y="60" as="targetPoint" />
          </mxGeometry>
        </mxCell>
        <mxCell id="Ckq702j_ndM2lnB-2Poi-136" value="" style="shape=image;verticalLabelPosition=bottom;labelBackgroundColor=default;verticalAlign=top;aspect=fixed;imageAspect=0;image=data:image/png,iVBORw0KGgoAAAANSUhEUgAAA7EAAAJOCAIAAADu8hd2AAAAAXNSR0IArs4c6QAAAERlWElmTU0AKgAAAAgAAYdpAAQAAAABAAAAGgAAAAAAA6ABAAMAAAABAAEAAKACAAQAAAABAAADsaADAAQAAAABAAACTgAAAAAHsU5gAABAAElEQVR4AeydCZxN9f//zxj7MGTPnsiSfY1syS7ZKqmQfNVXC1EqIkn+KhFFSVnyLRE/WiS+COVL9jVZIktkz1gmjOX/unPMmXPvfZ2Ze907253XeXiMz+d13ud9Pp/nOffc97zncz6fsOvXrxvaREAEREAEREAEREAERCAdE8iQjvuurouACIiACIiACIiACIiAi4BiYt0HIiACIiACIiACIiAC6Z2AYuL0fgeo/yIgAiIgAiIgAiIgAoqJdQ+IgAiIgAiIgAiIgAikdwKKidP7HaD+i4AIiIAIiIAIiIAIKCbWPSACIiACIiACIiACIpDeCSgmTu93gPovAiIgAiIgAiIgAiKgmFj3gAiIgAiIgAiIgAiIQHonoJg4vd8B6r8IiIAIiIAIiIAIiIBiYt0DIiACaZJA49gtiE1fvnx5WFgYfgbRp1yJgAiIgAikFQKKidPKlVI7RcAPAnv37n3qqadKlSqVNWvWyMjIu+++e9y4cf/884/p4vLly6hWq1YNu3Lnzn3nnXc++eSTO3fuNPdOmzYNoeH69evp+czAEQaff/65hwHOAr1ixYoeejJUjxw58vrrr2/evDkZzkVPsX//fvT93Xff9diLVkE/efKkh34T1R07dsAbTnQTx+oQERABERCBRAlkTNRCBiIgAmmLwPfff//ggw9myZKlW7duiFARAa9cuXLAgAG//vrrpEmT0JdOnTr98MMPXbp06dWrV0xMDKLh+fPn16tXr1y5cj72FKH2jBkzHnvsMcsesdqqVaugW0pSF/773/9ap0BMPGzYsJIlS1atWtUSQ6yAmBh9RHIc3Qyxrqk7IiACIpAaCCgmTg1XQW0QgaAR+OOPPx5++OESJUr8+OOPt956q+n3mWee+f333xEro7pu3TpEwCNGjBg0aJB11vHjx585c8aqJlpo3br1t99+i/Rnvnz5TGOEyAULFixTpszff/+d6OFBMcicOXNQ/MiJCIiACIiACICAxk7oNhCBkCLwzjvvnD9/fvLkyVZAbHavdOnSffv2RRnDKvAT4xzs3Q4PD8+bN69dSbjcrl075KFnz55tmSEmfuihh+DHUlCYOnVqkyZNChQoAOMKFSp89NFH9r3Xrl3DYIDChQtnz579nnvuQR4UGdDHH3/ctDGHcPzvf//r379//vz5IyIiOnTocOLECcuDNZ4Ywzlq1aoFvUePHhiogA3Homr3Zh5lHWJW//zzz/bt28MzWtivX79Lly6ZuvVzzZo1LVu2zJUrF1rYqFEjNMbaddOFBHweOHDg6aefLlu2bLZs2XA5kOy3RkqgR6jipAAV28Ub457Rx/vuuw8EatasiaMqVaqEMszmzp2LMtL2NWrU2LRpk9XarVu3grA5qKZQoUJPPPHEqVOnrL3mSA/83QCXEuNq0AbcMxcvXrQMVBABERCBECagPHEIX1x1LT0S+O677xDxYCCEU+eRQsauL774AmFxxow3+QRAjIiw+Msvv+zduze8bdmyBQMzPv30U4Rc9vMiCMZg5fvvvx8nQsMQ8CEORtLatBk4cCAi+LZt27Zo0QIe8NM7/HruueduueWWoUOHIjocO3bss88+O2vWLPspUC5fvvwbb7zx2muvYVR0gwYNoCTQfetYjK6+9957Dx482KdPH8Tl//nPf5BZt/aigGqrVq0QU+LsGTJkMOP7n3/+uXbt2nYzezk6Otpj6DAUu0HCPpHCx/gTpPmLFi2K/oIegnj8qgDaDRs2RDvff/99ZPfRX/g0f6KAvwA88sgjGD6OoSwY0AyeEydOhBloY+/IkSMR4O7atQtdQHXx4sX79u3DLw8IiM2xNPj5yy+/IM7GXnODPUJtHAgdZ0Tif/r06XE79b8IiIAIhC6B69pEQARChUBUVBSeVYhWE+gQolKkPGGGoQ4YUjxhwgSkJ+32CP6wF/GZXbTKy5Ytw15kiDEAA4EUYkrswmBlBOIowDOCYMsYEaFVRgFRr2mG8tGjRxEoI01rGSBJCc/du3c3FbMZTZs2RYNNBalc5KExxsOs4lzYzDJai2NxiFk1fyL6t7yZiv0QRNg45KuvvjJ3XbhwAal0KOggFJwU40DQYOvs6Mttt93WrFkz097jJ4as4FinDeltX3x64Fq9ejUcIh41z2Vm5c3mWWc3f8NBJG0qixYtwiFIGFvX9OOPP4ZiHeVxCvxWg70//fSTeTiif1TxO4zl3wys8RuLpaggAiIgAqFKQGMn8BWgTQRChMDZs2fRk5w5cybQHwSyiJzefPNN5F8REiFri7iqc+fOfo0nhv/mzZvnyZNn5syZeDjiJ8Jr75MiODNFBOtIoCIkRZLSDNyXLl165coVM+QybZAS9vaA1K+VwkQO+OrVq4j2vM1uQlmwYAGGlzzwwAPmscjF4lyWH0xhsWfPHuRfMbQALceGoBl5ZYSPiJItM48CPCARa9+6du1q2STq08KFFx9xXsTomBVk48aNlgdawKCUunXrmrvq1KmDAsarFC9e3K4Au1m1ToGUPDp11113Qfc4hZXIxy7zooCVebh+ioAIiEAIE7jJv5yGMBF1TQTSLgGMAUXjz507l3AXMLr31djtr7/+WrFiBeZlQ7o0U6ZM3tOrJeAH9hjhimHEGEtw6NAhhI/exhiAi9Qj8p1IT1p7ERNjhK4Z2pqpWXMXImyE6ZaZWbBiO1TNvcF6hw8NwNmtgBv+MZDXOjsCYpSRZrYUq4D2e7fT3IvUMhLbliUKmPHDqibqE8M5MGIB2e7Dhw/jNw3zQPNXCMuJd8GOCGBhUKxYMcvMVCxop0+fxuQV+B3m+PHjlo3HKdALa9ftt9+OQRfWsGZLV0EEREAEQo+AYuLQu6bqUfolgJgYQ2O3b9/uIwIkSjF6FVOzYcADwmK8yOXXCGPEwRi6ijEPVapUQbbS46R4mQ+JVczvNmbMGERpmCYC6cb33nsvgTyrhwdUPV7ag2IFi97GHoo93jV3Ic3s7dDjKLNqNnLUqFHek7vlyJGDHpKomKhPJGURED///PPI+yKWRftxdRLF5d0jb8WChrHCGGiBsS7oFzoC53iJMIFTeDNMtJsyEAEREIE0SkAxcRq9cGq2CHACmIUAkxAjNWv9PZ3b2VRkfCtXrowsJv6YjlevbHsSKdavXx9JSkx08Pbbb3ub4qU6zOSAKdusRKY5Ftm0NAfC4v0wDNI1FYwWsNKZ3t4SVmjohmyux4AQ5IYxoNlqAH55QLBoHYsX0ayzID+KMn7H8Mj7WgY3UUjU55w5c5CZHj16tOkcwxvs7bfaeROnNg8BXgxZQZ4Y7yOaipm69nAI0boouECImPHKnYeNqiIgAiIQegQ0njj0rql6lK4JvPTSS5hc7F//+texY8fsIJC1xRgJKIh48GKcfRcCL8TQiCAx5ZldT7SMKA3zEmB0hH3UrHWUma20MpT4A7352pxpgBQyctL22dkwR7J1rL8FdBmH2CNIVBGDYuYELFliesNLgRjjYXnGFMtY6QNhqKlgdIe5oIlZxXQTOBzTOGBiO+sQFOyTwdl1X8qJ+gQxCxccfvDBB0hsW55pH629vhQ8rggOMV809DgWr11aCtqAMubfsBQVREAERCBUCShPHKpXVv1KpwQQyWGML96Zw1xd1jp2+HM5Zi0wp/7FHAIY84AoB6+sYQgvhq5+9tlniA4RHnn/zT1RiJjjAhs1w0t4GC+BqcEwTRgiy08++QTTAGMEs2mMWS8w9y1yopjlAH++R6uwtB5WALm5bCh6jdfRMJAD7xcidsSrZsh04hcDhLxwjgED+JUAo6VhZjUVa/ghCgeiDRs2YAwJ5mLDa3bWXgyixdRyoIRRJZi5rEiRIgCFPDcyx8h/W2Z+FRL1iRw/moFRExiIgt9SlixZYp80GqMdcIGQksdvFxgRbk787FcD0HjM6Yb57/AOH3qEhQDpdBkQzYuCNgAa7haMjfHrRDIWAREQgTRJAGkJbSIgAiFGYPfu3Yj58CdvRKUIEzEVMRJ++Fs8uon88VtvvYUpIBAIIlOL9DCiK8SOFgEzm5voXGyWvb0At/a52DBwAqMysHIEWoJgbsqUKXhKIuQyD8G8E0OGDMFoDUyGgDb89ttvCAH//e9/m3u9m2EOvbCmFbNPrIZDvvnmG4SS5nhoHGs6QcyN4A8RJAisX7/e4xAMpUDwh1AYsTgC9IULF6J5ln94wGoXHTt2RKvgAYM9EFtj7IHp2eOnGVxi/LGHbs5uZs7FZu5KwCfGNiD+RmMw0hfTwGHtDJzUPp0cfq/A2A/zVxeznTBo06aN/aToAiaOsBSPhmGZEix9gt8fEHnjFUn8LgR7NNK0N1uLGZExHQduG9wbmBAab/5Z3lQQAREQgRAmEIa+4ZmoTQREQARSlgBGPiAIwyRxmBIjZVuSbs+O1yUx2hgRvLVkd7pFoY6LgAikQwIaT5wOL7q6LAKpggASkPZ2mGNbsXKbXVRZBERABERABJKHgMYTJw9nnUUERMCTAFZpxuxveNcNQwUwjy8WEMEQZAxy8LRTXQREQAREQASSnoBi4qRnrDOIgAgwAhhqjOG/eOULy++Zr9xh4AQzlCYCIiACIiACSU5A44mTHLFOIAIiIAIiIAIiIAIikMoJaDxxKr9Aap4IiIAIiIAIiIAIiECSE1BMnOSIdQIREAEREAEREAEREIFUTiDNjCfG+qKYShNTZt7clP6p/DKoeSIgAiIgAiIgAmmXAGa2PXfuXOHChbE6T2roBSakt1bxDLA9mOce08wH6CRNHJ5mYmIExMWKFUsTTNVIERABERABERCBdEgAC8gXLVo0xTuOgBhreR49ejQoLcHKSlj9Jz2ExWkmJkaGGJf20KGskZFhbtf4G7cpTuN3Uflq/H63Uha32o1KFBPPMhHaRqbnYSK0Jkw/xMR7mQjtPNMLMXEvE6FdYvpKJkLLzPQXmfg2E6HdwvRcTIRWl+ll8xH155NEhNTAdbd4br+f81TMemnWuGf/JsZOl4N2hJ5tOfHqkh5l+p1MhLaG6fT+cZrWjGYxtjO30Oh9VZOpEx2ev+WY58YOXxut/iTW9xDNeJqJ0NYy/VYmLmUitItMf7E7Uw1j5mdEp4+UHMTQJZVh+n+YCI16vrFgtvshZd2rVm2LVbIVOtrK9iI1pjAfzWQ/Lr78S0x82So5oXjPsrAVstnKVtHp07HVsrAV2tjKVrGCVXIvHHSvmrXqTIQWxfR/MXE2E6FFsp689Cu3po+ancz2MSZCow2mny8YU/LvMs8Vmeik0e+v2x2s6YfxlINxM6bTL7vezBLafUwvyURo37jpZy8bxWYZZqzitiMlKsgQIyBGgI4V3QM8P+YFQkYSDhUTB0gymIebQyYQEHvGxNn9OYtTTEz/JnCZeaYiDOnXAQ0lYUzbTNvg9M1BFx9kcaARwXoBLZzp9OsWhrQj9IPm5IH2jj5wcTra60gWxzn1zuMXJ7Ov1C12UWPaZXrh4IE2g95s1K1jl812e/2kp6Mw6S0Bf4wlvy0d28Zc0DbAA20wvaAwpr+n0/uH3oFOp6NXn7qFB7pFOlw82mvqmXLAuehl8uujRJtGG4bTUWOnttGOUM/0c4TTUc/0csDY9wcpbZhT7+gnl2J3arDTzXYNB3ht9B528hDJnsVOV5/qFBrtMlrKfkPhdyCMqRPaBmrpBeaGQJ+N9D7BAQyPEe3gml5TesPTawSv9N52ahvznKqGd0ZGZsc/B1i+y1d8N03rluyLLa33Se0XAREQAREQAREQAREQAX8IOP2u5I8P2YqACIiACIiACIiACKQuAkjxBp7lDdxD6oKSQGuUJ04AjnaJgAiIgAiIgAiIgAikCwLKE6eLy6xOioAIiIAIiIAIpDMCyhP7d8GVJ/aPl6xFQAREQAREQAREQARCj4DyxKF3TdUjERABERABERABEVCe2L97QHli/3jJWgREQAREQAREQAREIPQIKE8cetdUPRIBERABERABERABzAUd+KwRdELp0GSrPHFoXlf1SgREQAREQAREQAREwHcCyhP7zkqWIiACIiACIiACIpBWCGg8sX9XSnli/3jJWgREQAREQAREQAREIPQIKE8cetdUPRIBERABERABERAB5Yn9uweUJ/aPl6xFQAREQAREQAREQARCj0BayxP/5x8jm/tV2O9etWr7rJIPhf/HbAYwcRQToWVn+nYmQnuG6TOZ+G8mQpvO9C1MPMdEaCeYfo2J0Eoz/R0mtmAiNPrLV34H4/L1yI7jq4hYmGguadhZssOpbR+eJsY1iWYcYSI0erOdYsYlmQjtB6ZHMRHaAqb/i4kvMxEa9fx/DsaR7OL9h7FY6eBhAtN3/slUw6DN2MRsv2IitI1Mz8NECg2G4cy44ydMNYwqTP6SifQzDsPczLgRE6FdZDrt3dOZmSm0HEQ/zD4FsKtEbI1xTJxxmamGQT/mtBc4vhTz0YqJTh4oikzMQ3smQnuV6YOYCK0L0ycy8VMmQovZSna8TjSXtJ7p1Zk4lYnQZjCdPqxgmKM4sa5ykIhO3x30pqDfSquIV5e0jOnzmAiNPZY4NPrIhQd6oUs4nK6wu37JvZoqasoT+3cZ2Ledfx5kLQIiIAIiIAIiIAIiIAJpm0DGtN18tV4EREAEREAEREAERIAQwNTCgc8uHLgH0rLUKSVtnvijjz6qXLlyZOxWt27dH3648eeKixcvPvPMM3nz5s2RI0enTp2OHTuWOumoVSIgAiIgAiIgAiIgAumBQNLGxEWLFn3rrbc2bNiwfv36Jk2atGvX7tdffwXWfv36fffdd7Nnz16xYsWRI0c6duyYHlirjyIgAiIgAiIgAiKQXASQ4jWHFAfyMx3liZN27ETbtm2tCz9ixAikjX/55RcEypMnT54xYwaiZOydOnVq+fLlod91112WsQoiIAIiIAIiIAIiIAIikGwEkjZPbHXj6tWrM2fOvHDhAkZQIG0cExPTtGlTc2+5cuWKFy++evVqy1gFERABERABERABERCBwAgEkh62HxtYK9LO0UmbJwaHbdu2IQ7GAGIMHZ43b16FChU2b96cOXPm3Lnj5x8qWLDg0aNHvaFdit1M/ezZs94GUkRABERABERABERABEQgcAJJHhOXLVsWQXBUVNScOXO6d++OAcS+N3rkyJHDhg3z3V6WIiACIiACIiACIiACsQTMXG+AMOAkvWxJPnYCKeHSpUvXqFEDAW6VKlXGjRtXqFChy5cvnzlzxmKMeScgWlWrMHDgQATT5nbo0CFLV0EEREAEREAEREAEREAEgkggyWNie1uvXbuG0RCIjzNlyrR06VJz165duw4ePIjxFXZLs5wlSxZzHjfzp7eBFBEQAREQAREQAREQAUbAPiY4kDLzHYpa0o6dQKK3VatWeIXu3LlzmGhi+fLlixYtypUrV8+ePfv3758nTx4Eu8899xwCYk06EYp3l/okAiIgAiIgAiIgAmmDQNLGxMePH+/Wrdtff/2FOBiLdyAgbtasGcC89957GTJkwGodSBu3aNHiww8/TBu01EoREAEREAEREAERSBsEzPmJA2xrOpqfOGnHTmAe4v379yPwRXC8ZMkSMyDGxcmaNeuECRNOnz6N2dnmzp1LBxMHeA11uAiIgAiIgAiIgAiIQDIQQFBXsmRJRHd16tRZu3YtPSNWasP0u7CpVKnSggULTBtMzvvyyy9DiYiIKFy4MBKpWMrNOhyB4qOPPooxBZisDEMMzp8/b+1KikLSxsRJ0WL5FAEREAEREAEREAERSIxAIGOI7ccmcp5Zs2ZhQOzQoUM3btyI2RTw939kQj2OWbVqVZcuXRDXbtq0qX3stn37dthER0fjqCFDhuAnkqR4x+z++++3jkVAjPWPFy9ePH/+/J9++unJJ5+0diVFQTFxUlCVTxEQAREQAREQARFIFwTGjBnTq1evHj16YA2KiRMnZs+efcqUKR49x7RjLVu2HDBgAJYuHj58ePXq1cePHw8bjK1FyPvQQw9h6l68WgYRK7th6gXs+u233xYuXPjpp58i91y/fv0PPvgAq7/Zs8gepwi8mrTjiQNvn6cHzFbsEcZP9DS5Ub/I9PxMhLaR6f9i4homQqPL8DV0MH6B6eFM7M1EaG2Y3oSJe5gI7QGmZ2IitCimxzCxcQWmGsaoHUR3sDXWryLGdETTOWLokmoyfSgToU1j+q2ZiTrtMhEh0fuqMLO9j4nQtjCdrGMTa9aCGdM7szWzhObxITKtIqlqGBOvES+UfA9i6JJGM30gcwvDLsx4BhOjmQitFdPp2R5mltDoU2W4gzG9TO8xY/pQgiF9/jRjdyCMP2E3Ib3ZqCU81DpNGuf06RhDbI0IJjp9nJmtUTWSysYctjYTvdAnuAPjCNPpTJ6PMUtoDZhOPcCQ9po+rOhTAh6KsdPtYiK0QUxvykT6lIBhV2Y8ionQ3jxIduQkmvEQE6FNZvo3THR6Nr7EjF9nIrSfmf4IE6cyEVo7pjt9jXrcbOyjydwlp2bmegM8I5wY9nXTMCcYNsspZtdFFIs5FUwFb4thoWLvxYmhIJdsHYVc8tdff21VrQKm3w0LCzOXdcMhKNSseeMbHW7hfM2aNR06dLDsg1tw+BYM7knkTQREQAREQAREQAREIG0SKFasGBK65oblJuydOHny5NWrV7EgsSXSxYmxXHGiNljzGGOLMcQCA4jhDYcUKFDAcpsxY0bMV0aXPbZsAiyktTxxgN3V4SIgAiIgAiIgAiKQLggELU+MddPMOBXY7EniIFLEy3YYQXH9+vWPPvooiG79cqWY2C9cMhYBERABERABERCB9EUAAbEVE3v0PF++fOHh4ViQ2NLp4sSYYSwBGzMgPnDgwI8//midCIfY39W7cuUKpqFI0pnKNHbCuogqiIAIiIAIiIAIiEDIEDDzxIH/TAhI5syZsT6xtTgxVixG2XtxYiiWDdzhvTrLxgyI9+zZg0l78+bNa50MBmfOnMFgZVNBuAzneN/OMgh6QXnioCOVQxEQAREQAREQARFILwTw8lz37t3xMlzt2rXHjh2LpScwBwU6j8mGixQpYo4/7tu3b6NGjUaPHt2mTRtMH7F+/fpJkybBBgHxAw88gInYMNsaxiWbw4UxbhihNmaowFQVmNECc1nA7Nlnn3344Ycxh3HSYVVMnHRs5VkEREAEREAEREAEUooA5kBxzRoR2AYniWydO3c+ceLEa6+9hoi2atWqmEDNfJ0OU6phpgjz4Hr16s2YMWPw4MGDBg0qU6YMJp2oWLEidh0+fPjbb79FAQdap1m2bFnjxo1R/eKLLxAK33vvvfCDxY/ff/99yyYpCoqJk4KqfIqACIiACIiACIhAeiGAyBWbR2+XL19uVx6M3ewKylj9Du/VeYhWFQljRNJWNakLiomTmrD8i4AIiIAIiIAIiEDyEwjavBPJ3/QUOaPesUsR7DqpCIiACIiACIiACIhAKiKgPHEquhhqigiIgAiIgAiIgAgEiYDyxP6BVJ7YP16yFgEREAEREAEREAERCD0CyhOH3jVVj0RABERABERABERAeWL/7gHlif3jJWsREAEREAEREAEREIHQI6A8cehdU/VIBERABERABERABJQn9u8eSGsx8WDDyObeQ9cyKGx7iYnrmAjtKNNHM/E+JkIbwfRWTIT2G9NfYWIpJkJrx/RiTMzNRGj1mL6KidBeYHpZJq7ZwVTDeJ7J8Ss4uu+95l41a28ykXKAIe21E8zJzHOGy0T1nHsxzuTnuIL9/9P2SlyZ3lTYSedE7xN3lMf/JzzqsdU8TJzORGj3MP1Zyt0wHmLGu4h41eGGD19GjI1zTIRG9czMuBkToe1nejgTmzIR2h6m/8lEaKWZ3o+Ja5gIbSfRrzZld6BhhF9n9/HSfcQFfSjB7h1ia4xiIrT2TF/KRKenB723859lLhyeS3jse29FvKVYpQLTMxFx76tEhHQ7/XzRRwqsjzAnQ5hIGwbD/Mx4DhOhvc70FUxkXXbZvcaM2e3jsqP34CnmgX5knDzQbx/6CYWHRex09CkBQ/qNUJB5KMxEaLQj7HHnOv6iu5MY96pqaZBAxjTYZjVZBERABERABERABEQgYQL4lRSp4gA3+nttgD5T6eEZUmm71CwREAEREAEREAEREAERSC4CyhMnF2mdRwREQAREQAREQASSjwBSvIFneQP3kHwdDvBMyhMHCFCHi4AIiIAIiIAIiIAIpHkCyhOn+UuoDoiACIiACIiACIiAFwHNO+GFJEFBeeIE8WinCIiACIiACIiACIhAOiCgPHE6uMjqogiIgAiIgAiIQLojoDyxf5dceWL/eMlaBERABERABERABEQg9AgoTxx611Q9EgEREAEREAEREAFMGaH5if24DRQT+wFLpiIgAiIgAiIgAiKQRgho7IR/F0pjJ/zjJWsREAEREAEREAEREIHQI6A8cehdU/VIBERABERABERABJQn9u8eUJ7YP16yFgEREAEREAEREAERCD0CyhOH3jVVj0RABERABERABERAeWL/7gHlif3jJWsREAEREAEREAEREIHQI5DW8sTnveYVye1wURYxPZqJTlo9tmMJE6HlZ3p1JkKrz/TJTDzKRGhNmb6PiRWYCK0T06lbGK5gxi2YuJeJ0FYy/QQToVVhem8mZmYitG1ML8VEaNRJLmbcn4nQDjD9VSb+wERoDZn+BhOhUT4lmTG1hGEMMy7BRGhbmN6diOEbieiSLjJ9FhOhlWF6RSbSGx6GFOY7zEMtJkL7iemHmAjtFNMp4TzMElpJoocPIaJL+oR1ewIzbs5EaP9lOqZsottwptJcynxmCe0Bpn/KRGj0ideAGdMnPAy7MOOpRLx9DhFd0gimN2IiNPohfZQZv89EaOuY/hITob3HdPrtE8Esoe1nehQToYUzfTwTnZ5stCOrmIcsTIRGH2JON9tl5mQHE52+nem30gvMA7RJ7jp90LmbJHtNeWL/kNNnm38uZC0CIiACIiACIiACIiACaZpAWssTp2nYarwIiIAIiIAIiIAIJBMB/AEIqeIAN6e/IgXoNjUerjxxarwqapMIiIAIiIAIiIAIiEByElCeODlp61wiIAIiIAIiIAIikDwEkCSmo8L9OnvgmWa/TpeSxsoTpyR9nVsEREAEREAEREAERCA1EFCeODVcBbVBBERABERABERABIJLQHli/3gqT+wfL1mLgAiIgAiIgAiIgAiEHgHliUPvmqpHIiACIiACIiACIqA8sX/3gPLE/vGStQiIgAiIgAiIgAiIQOgRUJ449K6peiQCIiACIiACIiACmp/Yv3tAeWL/eMlaBERABERABERABEQg9AgoTxx611Q9EgEREAEREAEREAGMJw489an5iXUjiYAIiIAIiIAIiIAIiEC6IaA8cbq51OqoCIiACIiACIhAOiKgPLF/FzvwpLp/55O1CIiACIiACIiACIiACKQ2AmktT/y3YWRxZzjcvWrV5lolW6GCrWwvnrNX4soX4wr2/8vYK7byFlvZKla3Su6F+e5Vs3aKiU4eMjHjRUwsx0Ro3Zh+jInQTjB9PxMfYSK0RkxfxURou5ien4m0FzB8nBn3ZiK0Q0yPZmIrJkL7jek7mHiUidAime50u9KbkF67jcwttFJMr8REJ41euwYO1lOZXoiJ0FYwvR4TOzAR2iymN2PiTiZCo3xKOxjTe3syM57DRGj0URPjYExvwkeJ8c6XiAipXE+m/85EaLQZnzNj+jmCIf3kOn0QVjPPXzHxYyZCK8h0+kHIySyhVWF6CyZCG8L0SUwMZyK0fkxfyURo9GarxYzp1wEMqZ6beYBGb7bezHgJE6G9z/QeTPyZidBKMv0eJkKjtzG9h+m3DDwUY57HMhGax61CvzUcDk0uWXli/0grT+wfL1mLgAiIgAiIgAiIgAiEHoG0licOvSugHomACIiACIiACIhA8AlcNQz8C3AL3EOADUi+w5UnTj7WOpMIiIAIiIAIiIAIiEDqJKA8ceq8LmqVCIiACIiACIiACARCACleDCkOcFOeOECAOlwEREAEREAEREAEREAE0g4B5YnTzrVSS0VABERABERABETAVwJIEof5autoF3im2dF1atuh8cSp7YqoPSIgAiIgAiIgAiIgAslNQHni5Cau84mACIiACIiACIhA0hNQntg/xsoT+8dL1iIgAiIgAiIgAiIgAqFHQHni0Lum6pEIiIAIiIAIiIAIKE/s3z2gPLF/vGQtAiIgAiIgAiIgAiIQegSUJw69a6oeiYAIiIAIiIAIiIDyxP7dA8oT+8dL1iIgAiIgAiIgAiIgAqFHQHni0Lum6pEIiIAIiIAIiIAIYAm6wOcn1jp2upFEQAREQAREQAREQAREIN0QSGt54rsNI8L94rR3r1q16lbJVihiK9uLF+yVuPK8uIL9/2H2iq38i61sFfNbJffCTveqWWtNxKOvExFSoReYvp6J3ZkIbSTTH2Oik1aL7ajARGjzHXQqUz71mekgJkLr4qBTeQVTizHRSaP3z1FmfZGJ0C4zfQsToR1jeh0mOp0uihj/04qIkLLlYvoHTFzCRGiFmE4bDEOK4jDz8G8mQruH6XOI+M9KIkLK1onp25kIbRfTSzGxKBOhUW73ORiPYPo0IparRkSXNMtBpzJ94vVmptFMhPYy0/cxEVo7ol+vQsQweo1gSGE2IR4Mp08HJf8N8wBtD9MnM3E1E6F9ynTaYBiWYMZvMPE1JkI7zXRG2GW3jRlTbk4Nphd6CHP7DBOhHWF6fSZCe5/p7LvVqMgsodFmvO5g7MHnkoNZSspXgnFyn5xMmDBh1KhRR48erVKlygcffFC7dm3vU8+ePXvIkCH79+8vU6bM22+/3br1jWszd+7ciRMnbtiw4fTp05s2bapatap17N69e1988cWVK1deunSpZcuW8FywYEFrb9ALGYLuUQ5FQAREQAREQAREQATSCYFZs2b1799/6NChGzduREzcokWL48ePe/R91apVXbp06dmzJ6Le9rHb9u03Mg0XLlyoX78+omSPQ6A3b948LCzsxx9//N///nf58uW2bdteu3bNwyyI1bSWJw5i1+VKBERABERABERABEKWgE8p3sR6n7iTMWPG9OrVq0ePHnCFjO/3338/ZcqUV155xe553LhxSPQOGDAA4vDhwxcvXjx+/HgYo9q1a1f8RP4YP+0b4mCIiKEjIyOhf/bZZ7fccgvi46ZNm9rNglhO2jzxyJEja9WqlTNnzgIFCuC3gl274v/K2LhxY8T+1vbvfzv9HTSInZUrERABERABERABERCBoBFA+hbDHqw4NUOGDCivXu05WgiKZYNzI5fsbePRJoyXQJSYJUsWU8+aNSucYxyFh1kQq0kbE69YseKZZ5755Zdf8AtBTEwMcuDIhFutx28Vf8Vt77zzjqWrIAIiIAIiIAIiIAIiEBgBpHiD8s84a9sQqtpbdfLkyatXr9qH+aKMgcV2G5ShJGrjcchdd90VERHx8ssvR0dHI3rEwGKcCGGjh1kQq0kbEy9cuPDxxx+/8847Mb5k2rRpBw8exC8TVuuzZ89eKG4zE+PWLhVEQAREQAREQAREQARSA4FixYrlitswBCB5mpQ/f368lvfdd9/lyJEDJz9z5kz16tWRKk66syffeOKoKNe77nny5LE688UXX3z++eeIijFoGq8iIkS2dqkgAiIgAiIgAiIgAiIQAIGrARxrHepycujQISt3aQ1mMC3y5csXHh5+7Ngx6wCUEdpZVbMAJVEbj0NQxfgCTD2BVHTGjBlz584NJ6VKlfI2C5aShOG2vYl4T/D555+/++67K1a8MQPKI488goB42bJlAwcO/M9//vPYY4/Z7c0y8vO2bP1ZbwMpIiACIiACIiACIiACSUoAAbG1ecTEmTNnrlGjxtKlS80GIN5DuW7duh7tgWLZYBeG1HrbeBxiVRF2IyDG23WYzuL++++39KAXkilPjFHFmHTDPjL6ySefNDtTqVKlW2+99d5778WvArfffru9h8jPDxtGp8e0W6ksAiIgAiIgAiIgAiLgQQCDia97SP5XE082YyK27t2716xZE9MSjx07FmN/zTkounXrVqRIEXOsRd++fRs1ajR69Og2bdrMnDlz/fr1kyZNMhuDaYkxtvbIEddk1OZkDMgHY0N16tSp5cuXxyAKvJAHD/369Stbtqz/XfD1iOTIEz/77LPz589HSrho0aK0XXXquKbv//333z32IoWMERfmhry9x15VRUAEREAEREAEREAEUpZA586d33333ddeew3LbWzevBnvkpmv0yHStV6Jq1ev3owZMxAH4wWzOXPmfP3119bAgW+//bZatWqIldGLhx9+GGVzjjZUESJj1jKExW+88carr76KsyRpT5M2T3z9+vXnnntu3rx5y5cvv+2225x6AoLYhWyxhwHy8x4peg8DVUVABERABERABERABBiBZMoT49TIfmLzaANiP7vyYOxmV8wyJmPA5q1DeSt2o7uSQkzamBhDJvBrwTfffIMpis2JOfDmYLZs2TBMAjqW9cubN+/WrVuRDG/YsGHlypWToofyKQIiIAIiIAIiIAIiIAIJE0jamPijjz7C6bE8h9UIDA3BbwMYkb1kyRJz0Akm+OjUqdPgwYMtGxVEQAREQAREQAREQAQCI5B8eeLA2plajk7amBhjJ2hHEQdjOQ+6S6IIiIAIiIAIiIAIiIAIJDOBpI2Jk7kzOp0IiIAIiIAIiIAIiEAsAeWJ/bsR0lpMjIk7Mrn3MH4NEHe9unvVrC1gIrQYprdj4mImQnNNIeK1Pe2lmEJHptcjYqFXiOiS1jC9ERMvMhHaC0yPZiK0iUyn07OcYJbQ6jN9HhOhdWD6PiY69Y7q9CrD6yrmmV59p1Vl6M22jrntzERoFMUuB+OeTHcNU/La/JnaPBu9RnBZzMsthB1MdLr6dHqbucwDtJJML8LE/zLRSWtFdmR7hogu6T2ml2YiNPpBoLergwPjANuxkonQ6CeXnq63g4dPmV6GidA2Mp2KTvcP9fwhcwttBNHD6OvZ5YilSyrJ9K+Y2IeJ0OjnLsLBeBjT6QXdwyyh0a8wp0fNF8xJCSYOZSI0+hjc5mCcn+n0hv+TWUKjD/NqzJh+h8KQzjhF70AYV2Ce6WNwO7OE1pTpTlffAyZ90DF/0lItgYyptmVqmAiIgAiIgAiIgAiIwM0SwG8wfAirPw6v+WOctm31e03avn5qvQiIgAiIgAiIgAiIQOAElCcOnKE8iIAIiIAIiIAIiEBqI6A8sX9XRHli/3jJWgREQAREQAREQAREIPQIKE8cetdUPRIBERABERABERCBK4YReOpT44l1I4mACIiACIiACIiACIhAuiGgPHG6udTqqAiIgAiIgAiIQDoioDyxfxc78KS6f+eTtQiIgAiIgAiIgAiIgAikNgLKE6e2K6L2iIAIiIAIiIAIiEDgBJQn9o+h8sT+8ZK1CIiACIiACIiACIhA6BFQnjj0rql6JAIiIAIiIAIiIAKYnzjwWSMCXwkvzVwIxcRp5lKpoSIgAiIgAiIgAiLgMwGMnQjz2djJMB3FxBo74XQTSBcBERABERABERABEUgvBJQnTi9XWv0UAREQAREQARFITwSUJ/bvaitP7B8vWYuACIiACIiACIiACIQegbDr19PGSJGzZ8/mypVrg2HkcL8Id5R2r1u1wlbJVshpK9uKR7+3VeKKhSrGlWz//73dVrEVb3ncVrGKW6ySe+Gce9WsXWRiRyZCW8f0o0zMz0QH7cJaviPiNqaHE/H670SEFNaB6bQXhvHrn8T4zoZENGKYCI3CzOtgTLmVZcaLmGgY/5wn+nqiGQ2qMNVJ6+GwY7yD7iVfdrgcmfN4mUK4zERotzO9KBMrMBHat0yvz0Ro85l+HxOXMBGX4wDRs9UmIu8aDL9jxn2ZCO1dol+/RMSwgkR0SQ8wHe/G0G0XUfcvI2IJorkkhscomcvBuiTR97MnW8ksxNIl5WZ6TSZC28f0Y0ykT1EY9iHGp0YTMS+9JWCYlRgb0Uw0jKvscx5Ov30cvqp2/kQ8O3WO3kHFHycejO1MhLaH6H9HERHSLfTJT1/ZolcZLmjarQE53eH3iQiJfmnTSwTjzEOIk+vDiUg7ATva3rBMxAOk6+5fQGdjb/aoqKjIyEh+QDKqZsgUFZUhMjIswNOePXs9V65rqaRfAfYl0cPpDZDoUTIQAREQAREQAREQAREQgdAhoPHEoXMt1RMREAEREAEREAERuEHg+jUj8KEAgXtIO9dDeeK0c63UUhEQAREQAREQAREQgaQhoDxx0nCVVxEQAREQAREQARFIQQIYN+00dNr3VgXuwfdzpbSl8sQpfQV0fhEQAREQAREQAREQgZQmoDxxSl8BnV8EREAEREAEREAEgk4A09fgX4Bb4B4CbEAyHq48cTLC1qlEQAREQAREQAREQARSJQHliVPlZVGjREAEREAEREAERCAQAsoT+0lPeWI/gclcBERABERABERABEQg5AgoTxxyl1QdEgEREAEREAEREAHNO+HnPaA8sZ/AZC4CIiACIiACIiACIhByBJQnDrlLqg6JgAiIgAiIgAiIgMYT+3kPKE/sJzCZi4AIiIAIiIAIiIAIhBwB5YlD7pKqQyIgAiIgAiIgAiKg8cR+3gPKE/sJTOYiIAIiIAIiIAIiIAIhRyCN5YlLlzIiPcL4TA7XpBbT32eiYeSkciGi3nKaiC7pd6bvYCK0ckwvw8Q5TIR2guhXY4gYzixddpWIcUR5IkLa8BvRa+Qi4jyiuaR2bMdFB+M7H2U7fiDiKYfLkbcVMXZczodepj3MQz8mYj35t4jegN6Z9FyGsZ9du5LvELeQrh8h+i6iGbmZCK1QCbJj9yYiQrrjKNNLE/HUKCJCYp0zCtIWG0ZYduZkFhOLMdEwsuUh+ra1RCzFRNhF1CTGxkYmQmtC9LALRDSimAiN3iqTHIzZvV2Y2YYNYaphlJzMdOoChueI8RmiGUZTqhrGPqKf+p6IkDD60XsrQC8Ha5jr2G3eDgz6sWvg8PG4+l/iIbw2ESGF52N6fSYuYiK+DdgN/3M0N+YfmmnEuHhZIkJawG7C1k5XPz9zQhtRhVlCO0D0H9kXMWWGgzNTwg5PfuMYOR19pGxzIExJFLiHuIUU5v7JDcOTjt08/ODkUZEnph8qv84OJ+lm8wgw002/1VEREAEREAEREAEREAERiCOQxvLEcc3W/yIgAiIgAiIgAiIgAs4EkCQOPE8cuAfnBqa2PcoTp7YrovaIgAiIgAiIgAiIgAgkNwHliZObuM4nAiIgAiIgAiIgAklOQPNO+IlYeWI/gclcBERABERABERABEQg5AgoTxxyl1QdEgEREAEREAEREAGNJ/bzHlCe2E9gMhcBERABERABERABEQg5AsoTh9wlVYdEQAREQAREQAREQHliP+8B5Yn9BCZzERABERABERABERCBkCOgPHHIXVJ1SAREQAREQAREQAQ074Sf94DyxH4Ck7kIiIAIiIAIiIAIiEDIEVCeOOQuqTokAiIgAiIgAiIgAhpP7Oc9oDyxn8BkLgIiIAIiIAIiIAIiEHIElCcOuUuqDomACIiACIiACIjAdcPAkOIANzhJN5vyxOnmUqujIiACIiACIiACIiACDgTSWJ74wj4j3L0n2d2rVi3skFWMLxyMiS/bS8XL2mtx5c1xBfv/Ve2V+PK2JfFlq1TaKrkXsh12r5u1bUQ85fAbXt66xPjn1US8eJ6IkFpimJH39ru35FKqM/mTKKL2akNESMu/J3oE0VxShi/IjholiJjnNBEhHfyB6HmJ5pIimGcjN7Fe/hYRIe1hclt2sx1lltDWMb3tEaYaRqF8RN95kojt6Y0Nw/zE2OlyGI2IsbGCiDuJ5pKKMD3M4ffxU9HEOi+9RszSdfBl4oGeLaIwsXRJG4m+2eHDSO9B+vFqlou4hXR8LNGXEc0ldV5JdmSuT0RjHxOh5ST68vVEhNSY3UL8NmYPBJdTprOnncu2iuuH5/Yra5tT50rt8jwcdXr1F/+XWEKi3yl3reXG4d2Yzu4fIxOzhObxlRZr1aCMgzH7jP1ziRmfY6JhtO5A9HXziAipAnsERVBAJ7iHg1uIXpNoRuZ7mGoYG9gnoRS3NW5hzyUjK7GuWoeIkA6y0xnspoLx0QNuThyQu9kkd0Xjif0kTp8VfvqQuQiIgAiIgAiIgAiIgAikZQJpLE+cllGr7SIgAiIgAiIgAiKQXASUJ/aTtPLEfgKTuQiIgAiIgAiIgAiIQMgRUEwccpdUHRIBERABERABERABvAURlH8+kJwwYULJkiWzZs1ap06dtWv5APzZs2eXK1cONpUqVVqwYIHlde7cuc2bN8+bN29YWNjmzW7vch09erRr166FChWKiIioXr36//3f/1lHJUVBMXFSUJVPERABERABERABEUgXBGbNmtW/f/+hQ4du3LixSpUqLVq0OH78uEfPV61a1aVLl549e27atKl97LZ9+3bT5sKFC/Xr13/77bc9DkG1W7duu3bt+vbbb7dt29axY8eHHnoIh3ubBUtRTBwskvIjAiIgAiIgAiIgAqmGgDmeOPCfiXVozJgxvXr16tGjR4UKFSZOnJg9e/YpU6Z4HDRu3LiWLVsOGDCgfPnyw4cPR9J3/Pjxpg0ywa+99lrTpk09DkEVkfRzzz1Xu3btUqVKDR48OHfu3Bs2bPA2C5aimDhYJOVHBERABERABERABEKQwFnbdumS2/x/ly9fRpxqRbQZMmRAefVqz9lhoVg2AIRcsreNN7h69eohCX369Olr167NnDnz4sWLjRs39jYLlqKYOFgk5UcEREAEREAEREAEUg2BwDPEcTNXFCtWLFfcNnLkSHsPT548efXq1YIFC1oiyhgHbFXNApREbTwOQfWrr76KiYnBUOMsWbI89dRT8+bNK13aae0H76P9VjQXm9/IdIAIiIAIiIAIiIAIpB8Chw4dioyMNPuL8DTZOj5kyJAzZ84sWbIkX758X3/9NcYT//zzz3hFL4kaoJg4icDKrQiIgAiIgAiIgAikHAFz0okAzw8nhoGA2IqJPfwhWg0PDz927Jilo4yZIqyqWYCSqI3HIXv37sWYY7yKd+edd2IX3t5DQIwJLjBk2cMyWFWNnQgWSfkRAREQAREQAREQgfRFIHPmzDVq1Fi6dKnZbQz8Rblu3boeFKBYNti1ePFibxuPQ6Kjo6FggLKlI/iGf6sa9ILyxEFHKociIAIiIAIiIAIikNIEED1iQHCAmw8hKCZi6969e82aNTFBxNixYzG3GuagwGkxk1qRIkXM8cd9+/Zt1KjR6NGj27Rpg7fl1q9fP2nSJLNpeIXu4MGDR44cQRUzr+EnksrYMJkxRg9jGPG7776LIcUYO4FIev78+eZRSfFTMXFSUJVPERABERABERABEUgXBDp37nzixAnMp4YX6apWrbpw4ULzdTpEulaWFzNIzJgxA/OpDRo0qEyZMghwK1asaNLB9MNmDI3qww8/jJ+Y6vj111/PlCkTlvZ45ZVX2rZte/78ecTHn332WevWrZOOqWLipGMrzyIgAiIgAiIgAiKQQgSQ4vUhy5tI43zz8Gzs5uFq+fLlduXB2M2umOXHYzdvHQqi56Reu85+3vhRGnZVZREQAREQAREQAREQARFIPwTCrl+/niZ6i+miMTXeKsPI4d7cje5Vq9Y9l1WML2yIii/bS6ftlbhysypxJfv/++0VW7mYrRxX3Hxj2cK4etz/8Yt8xyn4fxCd26SkzcJW3Owab+O55fEUXPXfmQitLNOBl24PViPyYba8YhHPUfVxB2aKK9j+P/6TrWIrrrSVrSIDbFy0drsXbvw9xl28hd0SLhMG7tc/3A+OrTmdrkZ5YmxkZaKDi3W/EeNahYnoki4znd3EZx1+v4+kl99zNskbZ/kf+9TcmJLHvSHZ3atW7fYSVjG+cOpAfNleooPfCjDXs11vX5DtQfqbfjixNNiN7bLbQYyPnycipC1MpmdjN5rrYHqdC9zD/BrG4WVE9+deM/YQB0Zj9gl1GbJbhT7Z6PMSDujHuQG7JVyno5efuv7BZe69HWb3fJHa3obGL2uJCCmCyZVGM9UwfnmB6PSCZiaGLqkQu13/Yb2AMXWymHmux0RoHzG9CxOhHWF6KSY6tNcoRK/dYeLis5NEhNSdNW73l9z4DnYbX4ghxhFOn8b4OXbjj/qYPZ+xu1W8iat0zjDw1RMVFeU0P4O7edLWzJAp6gcjkt7Q/pz87AUjV6vU0i9/Gn4ztuzjeDN+dIwIiIAIiIAIiIAIiIAIpFUCGk+cVq+c2i0CIiACIiACIiACjgTwhxf6txfHA9iOwD0wr6lTS9o8MSbgqFWrVs6cOQsUKNC+fXtzig0TBBatfuaZZzC5Ro4cOTp16mSfyTl1klKrREAEREAEREAEREAEQpVA0sbEK1asQOD7yy+/YEo5rFjdvHlzzFpnouzXr9933303e/Zs2GBSuo4dO4YqYvVLBERABERABERABJKbAAZ6B+Vfcrc7xc6XtGMnMEed1bNp06YhW7xhw4aGDRtiEPrkyZMxU12TJk1gMHXq1PLlyyN0vuuuuyx7FURABERABERABERABEQgeQgkbZ7Y3gfEwajmyeN62xORMdLGTZs2NQ2wVEnx4sVXr15tt1dZBERABERABERABETgJgmY44kD/3mTp097hyVtntjigfWpn3/++bvvvttctgQrnWCB7Ny5c1sGWPIEolU1C5diN7OMiUU89qoqAiIgAiIgAiIgAiIgAkEhkEx5Yowq3r59O1a49qvReEUPcxKbW7Fixfw6VsYiIAIiIAIiIAIikH4JBJ4hNj2kG4LJERNjwb/58+cvW7asaNGiJthChQpdvnz5zJkzFmfMOwHRqpqFgQMHYsSFuR06dMhjr6oiIAIiIAIiIAIiIAIiEBQCSRsTY5E8BMTz5s378ccfb7vtNqvFNWrUyJQp09KlS00Fc7QdPHiwbl3PNdCyZMmC9WCszTpcBREQAREQAREQAREQgYQIXA/GvBNwkm62pB1PjCETmFzim2++wRTF5nBhDITIli0bfvbs2bN///545Q4h73PPPYeAWJNOpJu7Th0VAREQAREQAREQgdRFIGlj4o8+ci2u3rhxY6vTmHbt8ccfR/W9997LkCEDVuvAe3QtWrT48MMPLRsVREAEREAEREAEREAEAiIQlNHAcJJutqSNiTF2wolk1qxZJ8RuTgbSRUAEREAEREAEREAERCB5CCRtTJw8fdBZREAEREAEREAEREAE3AiYi9i5Sf5X4CTdbGEJpHJTFQTMT4xRyOMNI5t7s+5zr1q1NVbJh0IlZkP/XHCRWULLyvRSTIQ2j+knmPhUJqZCy0n0BaeJ2LoKESH9vYXox4jmkmjb6OuZ0Q4eaCsKVOPWpzYRnV7Q1lmIpUtqxPRlTDSM3TFEp9eoBTF0SVVvzKfivju/ezW2dpB1DXvY1TCc7u2wisSzsYOJnlO53LDZcIQYx88W7r4zfnYYm14jn60SV/z7ZFzJ/f/17lWzRj9f2NWAGWdn4jkmQqMz1NzJ7td/HJ71DI9xO/OA0/3InDTJwRrHLGE3l31sLjAH0LqyZixmnumFg4c6zPPvTIRGYboWXvLaCnspplCDodh7nluzB5tRgF3+wQwanL7J2jGLXVHPd7rjWrQkrmD//wnm1mXQ2251o/zrECLeyTi47CKJMf2EErtYqUZpsmehwxVtyZ66FxyeSxFjiefdzxORffm4zOj9Q79wnW5XcjL+BegyjGDWJdlH5kP2kcHRtZiHWiWYahiHD7jpeCKVNwzMlIW3QkkIKwAAQABJREFUpNx2pETFDJmi/mNEso+PXy06G23k6ppa+uVXy2/CmN0sN+FGh4iACIiACIiACIiACIhAmiWgsRNp9tKp4SIgAiIgAiIgAiLgRAB/j3P6k5zTId564B68faZWRXni1Hpl1C4REAEREAEREAEREIHkIqA8cXKR1nlEQAREQAREQAREINkIYNi0w8hpP5oQuAc/TpbCpsoTp/AF0OlFQAREQAREQAREQARSnIDyxCl+CdQAERABERABERABEQg2AY0n9pOo8sR+ApO5CIiACIiACIiACIhAyBHwKSZetozM7Prxxx+HHA11SAREQAREQAREQARCggCGApup4kB+ajyxx73QsmXLAQMGxMTcWNvg5MmTbdu2feWVVzzMVBUBERABERABERABERCBtEjA1zzxvHnzatWqtWPHju+//75ixYpYImXz5s1pscNqswiIgAiIgAiIgAiEPgGkeIPyL/RJ3eihTzFxvXr1EAEjFK5evXqHDh369eu3fPnyEiUcljtMN+zUUREQAREQAREQAREQgdAg4FNMjK7u3r17/fr1RYsWzZgx465du6KjHRabDw0q6oUIiIAIiIAIiIAIpGkCgQwjth+bpiH403ifYuK33nqrbt26zZo12759+9q1azdt2lS5cuXVq1f7cyLZioAIiIAIiIAIiIAIiEAqJeDT/MTjxo37+uuvW7VqhU5gBAXC4kGDBjVu3PjSpUuptFtqlgiIgAiIgAiIgAikZwLmYOIACaSneSd8iom3bduWL18+i2qmTJlGjRp13333WYoKIiACIiACIiACIiACIpB2CYRdv37dl9afOXNmzpw5e/fuxaRsefLk2bhxY8GCBYsUKeLLsUGxwUwXuXLl2m8Yke7uVrhXrVr7TFYxvvDzjdnk4hWzROUqnlau+gUmQqMebi/rYH2I6AvYCO3sxNAlHWB6d9blvbRl7HBot+dy2JGf6Nt+J+IJormkJszzgihu3Zp15EfWkZ3cgfF0/G9w8RZ/n4wvJ1qKYBZOV/8YM36fid2YCI1dfCOLg3FVph9l4nomQuvA9F1MhFaJDbBaxzIHxRw8ULkQ/YAZxj9biHm2HET85DwRIXk8Ikyjosy2OhOh/cB0p3eKyzDjI0xcxERofeuTHbNWEhFSNSbTz93dBZmpYRxm92tObmssYXrHPEQ9eJqIkNhzwnCatKg/u9C/sAtNCeN0HX1+1LR2+IAdZ3/+pBxwOtcfT702+lG66GVmCuFMb+DQttmsbZWYh3eZCK0B0+9nIjT6XKLk6fMHHtoWZa7PEPE6u8qwC6tJjD9zeLTRRxD9dDh9OX9Gzma85/BRWuf+UUIPmhhGVFRUZCR9CDHXSaaZIVPUe0ZktkDPcfYfI1e/1NKvQDuT2PE+5Ym3bt3atGlTV0i6f3+vXr0QE8+dO/fgwYPTp09PzL/2i4AIiIAIiIAIiIAIiEBqJ8BSQF5txuRrjz/++J49e7JmzWrubN269U8//eRlKEEEREAEREAEREAERCAVELDPHRFIORV0JXma4FOeGLOwTZo0yd4gjJo4etTpryV2Q5VFQAREQAREQAREQAREILUT8CkmzpIlC8am2LuC6Yrz52eDTO1GKouACIiACIiACIiACKQIAc074Sd2n8ZO3H///W+88UZMjOstp7CwMIwkfvnllzt16uTnuWQuAiIgAiIgAiIgAiIgAqmRgE8x8ejRo8+fP1+gQIF//vmnUaNGpUuXzpkz54gRI1Jjh9QmERABERABERABERAB5IkDGUZsHstmGQpVtD6NncCME4sXL165ciUmoEBwXL16dUxDEapE1C8REAEREAEREAEREIH0RsCnmNiEUj92S2+A1F8REAEREAEREAERSHsENJ7Yz2uWUEz8/vt02YH4M/Tp0ye+opIIiIAIiIAIiIAIiIAIpE0CCcXE7733ntWpEydOREdH586dGwrWtMuePTuGFysmtvioIAIiIAIiIAIiIAKpiIA5IDjABsFJutkSesfuj7gNr9NVrVr1t99+Ox27oYAhxcOHD083lNRRERABERABERABERCBUCaQUExs9XvIkCEffPBB2bI3VghHASnkwYMHWwYqiIAIiIAIiIAIiIAIpCICgU86EZRMcyoikkhTfIqJ//rrrytXrtg9Xb169dixY3ZFZREQAREQAREQAREQARFIDQQuXrzobzN8ionvvffep556auPGjab3DRs29O7dW9Ox+cta9iIgAiIgAiIgAiKQTATMeScC/5lMzQ3Oaa5du4bBvUWKFMmRI8e+ffvgFIMdJk+e7It3n2LiKVOmFCpUqGbNmljkGVvt2rULFiz46aef+nIC2YiACIiACIiACIiACIhAMhB48803p02b9s4772TOnNk8XcWKFX0MWcOuX7/uYxN37969c+dOGJcrV+6OO+7w8ahgmZ09exZLh3xiGNndPVZxr1q1162SrVDXVrYXO9srceUizPWpLXG73f/P4141axOYCK0a0yOZmIWJ0E4wfTUTH2IitKxMX8REaOFMfyQfUZ8+SURIdImXQ9zWoH/taMGM2SVy2Z1hxsuYCM11T3ttlbwUCG0dzvcLuytKMQ/nmAjtCNO3MRHaAabTaRGPMkto85lejonQcjF9BxMfYyK0AuyDN4ver4ZBf02nt6trEhy2NWCfxgWniekporkk2jsqwvibHMTLwfNELEY0lzSd6YyZy472ml7QCOYW2gWm72IitA5Mv6sEUcfT+9IwnmV8PmR84JTehOvI2YyXHT6MM9iHsQLzwG4Tlx0dFFirInOBNcK2E/1HohmFmQjtTvaUf/ASt36ByfRC02cgjm7g8Q0a6/BwNPNrGCuZ3Jk9Ef4XxUwNAwlK741eOvrYx7GuLJ/X5tQ7ioLdrUZxxgHneZOhwJBaunVxV3FT1zCMqKioyEj6fe5uncQ1M2SKetWIpE9Pf85+9qKRa0Rq6ZcvDcdayx9//DEGOGDF5S1btpQqVQqxa926df/+++9ED09oLjaPgxEHJ38o7NEGVUVABERABERABERABESAEjh8+DDCYvsujKaIiYmxK05ln2JivFGHRPTSpUuPHz8O15avH3+kvw9b+1UQAREQAREQAREQARFICQJBmTXCKU+eEh3y5ZwVKlT4+eefS5SI/wvBnDlzqlWr5suxPsXEffv2RUzcpk0bjMkICwvzxa9sREAEREAEREAEREAERCA5Cbz22mvdu3dHthg53Llz5+7atWv69Onz59MhZp7t8ikmnjlz5ldffdW6dWvPo1UXAREQAREQAREQARFIhQSuO4zp9qupcJKmtnbt2n333XdvvPFGREQE4mOsMYdqs2bNfOmETzEx3t3zGJzhi2vZiIAIiIAIiIAIiIAIiEByEmjQoMHixYtv4oz0JW9PPy+88MK4ceN8n6HC83jVRUAEREAEREAEREAEkpOAOZ448J/J2eYUPZdPeeKVK1cuW7bshx9+uPPOOzNlymQ1GAM1rLIKIiACIiACIiACIiACIpD8BG655ZaEX3g7fZpNyeneUJ/yxLlz5+7QoUOjRo3y5cuHSYKtzd2VaiIgAiIgAiIgAiIgAqmDAOYJC8o/H3ozYcKEkiVLZs2atU6dOmvXrqVHzJ49GwtcwKZSpUoLFiywbJBgbd68ed68eRHUbt682dL3798PxWODE8vAXhg7dux7sdvgwYOht2jR4vXYDQVUsZSd3dip7FOeeOrUqU7HSxcBERABERABERABEUi3BGbNmtW/f/+JEyciIEZsijAUsz0UKFDADmTVqlVdunQZOXLkfffdN2PGjPbt22/cuBGzmcHmwoUL9evXf+ihh3r16mU/pFixYn/99ZelTJo0adSoUa1atbIUewFzTZjVTp064QW7Z5991qz26dNn/PjxS5Ys6devn92eln3KE9MjJYqACIiACIiACIiACKRSAoGPJDY9JNa9MWPGIJzt0aMH5gZGZJw9e/YpU6Z4HITX0lq2bDlgwIDy5csPHz4c00EgVDVtunbtigkimjZt6nFIeHh4Ids2b948xM05crC1MW1HLlq0CCeyCQaqiIntilM5kTwxZjlG1trpYMT4Truki4AIiIAIiIAIiIAIhAABLBZt9SJL7GZVL1++vGHDhoEDB5pKhgwZEN2uXr3aMjALUJBLtkTkkr/++murmmgBp8CwCozQSNQSYzC++eYbTA5hWaIK0aomUEgkJkZyO4GDtUsEREAEREAEREAERCA1EvAty5tIy+HEMDCMwTIbOnQoRupa1ZMnT2K144IFC1oKyjt37rSqZuHo0aMeNlA8bBKoTp48GQnmevXqJWBj7ho2bNi//vWv5cuXYyAHlDVr1ixcuPCTTz5J9EAYJBITo+e+eJGNCIiACIiACIiACIhASBI4dOhQZGSk2TWkiZO5j//88w+GIPv4ntzjjz+O6Pn9998350ZDGZOnmfFxos1OJCZO9HgZiIAIiIAIiIAIiIAIpDoC5qQTATYLTgwDAbEVE3v4w4xkGPh77NgxS0cZw4CtqlmAkqiNxyFWdc6cOdHR0d26dbOUhAuIgL/44ouEbehevWNHsUgUAREQAREQAREQARFIhACWOq5Ro8bSpUtNu2vXrqFct25dj8OgWDbYhXXmvG08DrGqGDhx//3358+f31ISKBx02BI4xNqVxvLEew0jq9X22MIq96pVo6NUoqzd7oVq7lWzds8WolYnmku6yPTcTIS2kun0lch9zBKa570Wa7aLGVdhIrRPmR7NRGiPMb36SaJWJZpL+tJBp3JZps7yWYRhO2bstMAMHZ1EUYxntwROdZidjt4q9NLj6D3Mg9OnPw8zfo6J2ZkIjbaNEoaxxyfOdNmHeXZ6+aCW57sWroNLMA/Q6D1/gBnHD15z37vutHs9traeaMYZJkJ7gOklmQjt5/NkxzqiGduZCI3e8AMcjKl8jqmNmAgtflSgzaCwrWwvnrBX4sqPsOtRKm6vx/8DGZ+cHkZx1UVxBfv/Ne2VuHJHhw8j9dA07ij7/zH2iq3cwVa2iuMdLh598nvmxywvtHCJqE7XjnaaXn36DYgzXWCPts9JE1zSEaZniSKq0+06hdgaTzPRSVvGdjg9G+lX1VTmISfjAMOrzNjB1vjI3ZhdSXeL5K+hP7RLfrXEBw94eQ5TodWsWbN27dqYiw1zq2EOCpwEmd0iRYpg/jWU+/bti2UuRo8e3aZNm5kzZ65fvx5zq5kNwWoaiGOPHHHdcZjEDT/N2SbMvb///vtPP/1kn8/Y1J1+YppkOjkEBj07HWLpGa2SCiIgAiIgAiIgAiIgAiLgF4HOnTufOHEC86nhtbmqVavinTbzdTpEupiGwnSF1+MwJhgLagwaNKhMmTKYdMKcnBh7v/32WzOGRvnhhx/GT/trfJjWrWjRoljUw/ST6M9NmzZZNjExMahiqrgRI0ZYYgIFn2Liffv2lSrllAVIwLl2iYAIiIAIiIAIiIAIpASBa8HIE8OJDxvWyLCWybDMMfmDVUbhwdjNrphlvBWHzVs3lf8Xuznt9darVHH7Azmy14ULF8ZiHx07dvQ29lB8Gk9cunTpe+655/PPP794kf6lyMOnqiIgAiIgAiIgAiIgAiKQ8gTKli27bh0d0ebZNp9iYqzNUblyZYwXwQiPp556ymkla0/fqouACIiACIiACIiACKQIAaR4g/IvRRp/syfF8iLWFhUVhZmSMWADozV88edTTIzRIViUD8OfMaoDa09jWWqMAsH4DAwf8eUcshEBERABERABERABERCBpCaQO3fuW+K2PHnyYLlpLKH30Ucer0TyVvg0ntg8NGPGjBiNgRcGP/zwQyzi9+KLL2KgNNaefvvtt2+99VbuXqoIiIAIiIAIiIAIiEDyE0iueSeSv2cJnHHZsvjZSvCGH2ZwwwBgRLAJHGLt8snItMbEGcgTYwaNiIgIBMQ9e/b8888/sYZeu3btNJrCAqqCCIiACIiACIiACIhAihDARGyY48IeBF+5cgWzuTVs2DDR9vgUE2OYxNSpUzFpXOvWradPn46f5uQat91227Rp0zAVXKKnkYEIiIAIiIAIiIAIiEDyETAHEwd4PjhJUxvmhMAo3wIFClitxqhiiEGbnxjjMJ544gnMlOE9RgJnxfoi1olVEAEREAEREAEREAEREIEUIXD9+nWPNTtOnTqFAQ6+NManPPGePXSZLZd/rOmHxUt8OZNsREAEREAEREAEREAEkolAOhtPbM5AjIAYOdwsWbKYkJEe3rp1K0ZT+MLcp5gYAydy5MiBuZYtj7Nnz46OjlY0bAFRQQREQAREQAREQAREIKUI5MqVC6dGnjhnzpzZsmUzm4HU7V133dWrVy9fWuVTTIy1qj/++GO7OwyZePLJJxUT25moLAIiIAIiIAIiIAKphUA6yxMjgQvyeMkN80D4OFjC40r5FBNjxWq8Tmc/skSJEhDtisoiIAIiIAIiIAIiIAIikIIEhg4detNn9ykmRlYYozHs80ts2bIlb968N31WHSgCIiACIiACIiACIpCEBNLTvBPVq1dfunQpFuuoVq2axzt2JmEsyZwoap9i4i5duvTp0wfjM8zZ3VasWNG3b9+HH344Ue8yEAEREAEREAEREAEREIEkJYC1Msz36tq3b3/TJwrDYORED758+XLXrl3xXp05B/K1a9e6des2ceJEjFxO9NhgGWD1aoyejvrCiMzu7jLcvWrVMlklW+EbW9lefMBeiSs3iSvY/59vr9jKF2xlq3jOKrkXaJtXuNuYtRJMhEZz9DuYcX0mQjvN9H1MhFaY6b2ZOIOJ0IowfRYToRViOsZFeW8tvKVYZQvTDzERGjVuxYydPDRlxpOYWIuJ0F5g+g9MhLaZ6X8ysRQToV1kehUmQqvE9LNMPMZEaAWZPo+JThq94fc7WPdj+homejxMLBP6QShj7XYvvOxeNWtvM/EzJkKrwPTuTISWn+k/MpE+A2FIyZ9hHqBVZfopJtIuw5A+E+gDAcb0isxhp6O3BAxzMuPPmfgFE6HRyUXvczCm99U6ZuzkoVdlYj1sKxEhlWUy+zhf7sEsMVUU/ZpYxo35k59+f+Vx8LCE6bQXTrfrAebBaQoBunxvTeYhKxOhMZhGtIOx+7fS2YtGruEGpsKNjIx0OCD55Bsh0wNGpBNYn9tyNsbINSe19MvnVt+koU95YsS+s2bNGj58OIZM4FW+SpUqYTzxTZ5Qh4mACIiACIiACIiACCQ1AUTtGQI+h3voH7C7ZHKAZO7x48eRw7XOV7x4cavsVPApJjYPviN2c3IkXQREQAREQAREQAREQARSkMDu3bt79uy5atUqqw3mKh5BW8cOjrCGMwYvewTdP/5I/2JnNcPAAtOjRo3asGED1tmbN2+eNcgD0yl/9ln83xFbtGixcOHC+MNUEgEREAEREAEREAERCIQAkqTxedKbdRS4h5s9880d16NHDwz0nT9/PpZepi/bJeDWpzwx3qhDTNymTZuKFSv6dYILFy5UqVIF60Kbi4vY29GyZUtzJjmI1nIjdgOVRUAEREAEREAEREAERMB3Aps3b0Yqtly5cr4fYln6FBPPnDnzq6++at26tXWYj4VWsRs1RhxcqFAhukuiCIiACIiACIiACIhAQATS5XjiChUqnDx58ua4+TT6Gu/YlS5d+uZO4HTU8uXLMe1x2bJle/fufeoUfY3ZuHTpEt6dtDYnV9JFQAREQAREQAREQARE4O23337ppZcQZCK2tAJIFHwh41Oe+IUXXhg3btz48eP9GjiRwOkxcAKjKbA23t69ewcNGoRs8urVq8PDPad4wZrSw4YNS8CPdomACIiACIiACIiACBAC6XI8cdOmTYHi3nvvtYAE+R27lStXLlu27IcffrjzzjszZYqf7G7u3LnWKf0qWOt9YFq3ypUr33777Yjo7R0wvQ0cOLB///5mGTF+sWLF/DqLjEVABERABERABERABNIPAcSrN91Zn/LEuXPn7tChw02fI+EDS5UqlS9fvt9//907JsaYY2wJH669IiACIiACIiACIiACngTS5XjiRo0aeXLwue5TTGxNEOGzWz8M//zzT4z5wJQZfhwjUxEQAREQAREQAREQARFwJ7B1q+cykBj3mzVrVqzZkWia1aeYGKe7cuUKhjdg+O8jjzySM2fOI0eOYPXCHDlyuLfEs3b+/HkkgE31jz/+wAQZeWI3jBLu1KkT5p2AQwyFxgt8mKLY82DVRUAEREAEREAEREAEbo5AuswTV61alb78hqG/nTt3/vjjjxEfO+H0ad6JAwcOYOBvu3btnnnmmRMnTsAXXut78cUXnZxa+vr166vFblAwMhjF1157De/SIYq///77sS4e1hqpUaPGzz//nGjwbvlUQQREQAREQAREQAREQAS8CWCFuDJlykyaNAl5WGwoYIqzGTNmTJ48GSvNDR482PsQS/EpT4w1O2rWrLlly5a8efOaR2J4ca9evSwvToXGjRvjdT/vvYsWLfIWpYiACIiACIiACIiACASHAOKvwFehI0FccFqXRF5GjBiBqdKs0QdI6RYtWnTIkCFr166NiIjARGrvvvuu06l9iomRx8XK0Zil2PJSsmTJw4cPW1UVREAEREAEREAEREAERCBlCWzbtq1EiRL2NqAKEQqGVfz111/2XR5ln2Lia9euXb2KYSnxG16Mw6ji+HqylTDfXKT7yUa7V61aLqtkKzSyle3FM/ZKXPliXMH+/wV7xVZ+2KNZsbs2OMwRvcV2oFWMsUq2wgO2sr34pb0SV/4grmD/ny+HYhgr7UZx5b714kru/3+3yr0eW6N/J3BqMCVcinh1SW8wmAsZTM8preMcPhRXsP9/448cdim2HFndSzKMBhuJSN3CLoLYGv2YmIeJ0B5lekUmQnuJ6fnYOKj/c0gRHGEe9jERWiumz2fidCZCe5LpO5gIjfaONtjpCbSGeW7KRPo5giG9XeszD9CeYDp9evRlltDYvWYMcjCezfTCTJzMRGj03Q0qwpg+QKoxz52ZCO1Vpg9nIrTsTKeT1D/OLKHR09GbrXJx7uK+g0RnHy+XGf2i+X/EgbGfidBe2kp2OA133EVsjfuImHksEV1SSaaXYSK0Zg3Jjr9/ImJ/orkkulgt7Z1rVCbb/sXEuUyERjtCn2y9HTzMYTp9wsMwv7txtHs1NdQQuIUF3A636C9gb0nvAKs6v/XWWxgyYWZyY2JiUDWXekYyt2DBggk0waeYuHnz5mPHjsUJ4Agjl/Hm3NChQ29iqecE2qFdIiACIiACIiACIiACIhAIgQkTJuCNNYyXwPIX8IMMMbK68+e7Ejn79u17+umnE3DuU0w8evRojMzAEtIXL17EvBN79uzBjMJffumUY0ngdNolAiIgAiIgAiIgAiKQ9ATSZZ64Xr16mOjsiy++2L17NxA/+OCD5oRpKHft2jVh6D7FxAi38YLdzJkzMV8EksSYLOLRRx/Nli1bwq61VwREQAREQAREQAREQASSkwAG9/773/++iTP6FBPDb8aMGR977LGbOIEOEQEREAEREAEREAERSG4C14Ix7wScpMFtx44dBw8evHz5stV2DKiwyk4Fn2Li6dOn0+O7detGdYkiIAIiIAIiIAIiIAIikMwEMGgY8wVjGDHefzOnAzaX8PCYK4K2yqeYGPMTWwfjDb7o6Gi8zZc9e3bFxBYWFURABERABERABEQgFRFIl+OJEbLedtttS5cuxU/MSXzq1KmE5yS2Xy+fYuK///7bfgzesevdu/eAAQPsosoiIAIiIAIiIAIiIAIikIIEVq9ejfXqMBVEhtitfv36I0eO7NOnz6ZNmxJtldOkiwkdiEXzMNmbPXmckLX2iYAIiIAIiIAIiIAIJDMBczxx4D+TudmBnQ5jJMwFNBAWHznimtwea3bs2kUn9/Y8k095Ys+DYl+5M8/kvUuKCIiACIiACIiACIiACCQ/gYoVK2KqNAycqFOnzjvvvIOxvlheo1SpUr60xKeY+Ntvv7V8YcAyVsYbP3783XffbYkqiIAIiIAIiIAIiIAIpCIC6XI88eDBgy9ccK05PGzYsLZt2zZo0CBv3ryYTdiX6+JTTNy+fXvLF17fy58/f5MmTbCQhyWqIAIiIAIiIAIiIAIiIAIpSwBrzJkNwEDfnTt3nj59+pZbbjGnnki0YT7FxNeupc3p6RLtvQxEQAREQAREQAREICQJIHZDqjjALe0EgE888UQCfZ0yZUoCe81dPsXEiXqRgQiIgAiIgAiIgAiIgAikFIFp06bhdbpq1aqZ0xLfRDN8ion79++fsOsxY8YkbKC9IiACIiACIiACIiACyUcAKd6wgM+WdvLEmCb4yy+//OOPP3r06IGll/PkyeNv532KiTGpGzas1lG2bFmcYPfu3eHh4dWrVzdP5uMoDX9bJnsREAEREAEREAEREAER8IXAhAkTkKKdO3cuhkkMHDiwTZs2PXv2bN68ue9hqk8xMV7cw2Rvn332GcYpo1lYwgMxOF7lw9IgvrQymDYbDSPC3V9p96pVK2SVbIUKtrK9eMheiSuPiCvY/38zu70WXz5+Nr5slc5ZJfcCnRW6vruNWYtmIrR2TF/AxNNMhEbb9uEqbk1/15rFUAxzaHEr5ngNE6HNZjALM+OLTIRGL+g+B+N7z5AdvYlmFGUitEtMp22oySyhUT5ZHYxPMH0H+12+EbOE9gXTX2UitBVM78zEzEyEVonpPZgILYbp4Uzsy+5AGG5mN+H7zMO7BZhqGFOOE50+UmBHH0GtiQMj8nWmGkYuplfntsY6prOLb/RjltCqMP1LJjppC9kOh4eHcYpdpvvYNYLXvswzHvveG/2EwsyJm7eH5Qe9NZcynslO33U3XuZxP2SRe9WsUUvsWs2MyzER2h6m08/XfmYJjcKc6mDcrAjZcQu7oDEOF5TOf1WWeDXaV2aqYfy/rUSvQDSXRFtBP6GUAzxQz3kcTtfQfcfZ60avvx1MU0gOfDAxGh4UJ8kFIEuWLF1itwMHDmAoxdNPP33lypVff/01R44cvjSBRmeeB2KKCawCYgbE2IfCm2++qXknPDGpLgIiIAIiIAIiIAIikNIEsIYd0sMYWIwlPHxvi08x8dmzZ0+ccMtNoXruHM00+n5qWYqACIiACIiACIiACCQNAUSDQfmXNK1LCq+XLl3CkOJmzZrdcccd27Ztw2IaBw8e9DFJjPb4NHaiQ4cOGCyBxHDt2rVxzJo1awYMGNCxY8ek6I98ioAIiIAIiIAIiIAIiIBfBDBSAmtzFCtWDJOyITLG2s5+HQ5jn2LiiRMnvvjii4888ghes3MdkzEjhi2PGjXK35PJXgREQAREQAREQAREIDkI4E2D9DTvBILV4sWLYxnnFbGbB2G8e+eheFd9iomzZ8/+4YcfIgjeu3cvXNx+++0RERHevqSIgAiIgAiIgAiIgAiIQPIT6Natm+9TTNDm+RQTm0f+Fbs1bNgwW7ZsGLYc4IlpaySKgAiIgAiIgAiIgAgEgYAfb5c5ny0oTpzdB3EPJpoI0JtP79idOnXq3nvvxYDl1q1bIzDGKTF2IgUmYguwrzpcBERABERABERABERABBgBn2Lifv36ZcqUCe/uYRCF6aRz584LF9I5KtlJpImACIiACIiACIiACCQnAYwnDsq/5Gxzip7Lp7ET//3vfxctWlS0aPyKBWXKlMF8yCnacp1cBERABERABERABERABIJDwKeY+MKFC1aG2Dzt6dOnsVhIcJogLyIgAiIgAiIgAiIgAsElQFe49PcUQXHi70lTyN6nsRNYxnn69OlmC/Fq3bVr195555177rknhdqs04qACIiACIiACIiACKQWAhMmTChZsmTWrFnr1Kmzdu1a2qzZs2eXK1cONpUqVVqwYIFlg1nSmjdvnjdvXkSYmzdvtnSzsHr16iZNmmC6s8jISEzz8M8//3gYBLHqU0yMCHjSpEmtWrW6fPnySy+9VLFixZ9++untt98OYjvkSgREQAREQAREQAREIGgEgrKInQ/zTsyaNat///5Dhw7duHFjlSpVWrRocfz4cY9erFq1qkuXLpihYdOmTe1jt+3bt5s2GIxQv359GlUiIG7ZsiUiZsTZ69ate/bZZ7Fos4fnIFZ9GjuBIHj37t1YIi9nzpznz5/HCnbPPPPMrbfeGsR2yJUIiIAIiIAIiIAIiECaIzBmzJhevXphwWO0HAtnfP/991OmTHnllVfsHRk3bhyiW6yCDHH48OGLFy9GVAljVLt27Yqf+/fvx0+PDXM89OnTx3JVtmxZD4PgVhMPt7F2HSZiQ8j/6quvfvXVV0h3v/nmmwqIg3sZ5E0EREAEREAEREAEgkkgKJNOJDaeGCMINmzY0LRpU7PlyOOijPyuR0egWDbYhVyyt43HIYg816xZU6BAgXr16hUsWLBRo0YrV670sAluNfGYGLOwbd26NbhnlTcREAEREAEREAEREIE0QeCsbbt06ZK9zSdPnrx69SpiVktE+ejRo1bVLEBJ1MbjkH379kF5/fXXkYTG/L/Vq1dHinbPnj0eZkGs+jR24rHHHps8efJbb70VxBPfpKu7bzciw92O3brbrWpV6G82ua3d7oUv3atm7c08RP31NBEhHWFys8xMNYzfLhN9GdGMu+5gqmF8z3odw2yLMRFa/N3rYGCXc9orceXj0XEl2//tbGV7sYK9EldeE1fw+D+TRz22up6JdZgIjXo45GD8q+tT57mV8hRc9XNMhHaB6VmZyJi57J5jN5tRkbkwjOU/ET0/0Yx8Dr/09mWfhF8c7u3XmecfmLiTidAeYc1YRD+ihlGSOSnMRCMHVY2qdxM9/2IiPuY54u2GzTRia2xkIrSHG5IdY9g1KvY6sYREn/B9uK1BHyqZCxDrXxx6t5/YGjWZCC2C6U8z8T4mQvuD3fQfOhjTe7BqZWL9iUOmpiexNZ5kopNWne3YwURo9GMexYydnh6NmDF9gsGQPvEGMw9lmAiNPnW7ORh/zb4a6zHjzkyEVoXp9OO82eGClmQenHpH/65eiHlwyja2ZR+lDQ4fJY9nJv0iYCdPPg1Dga8HfLbYR3WxYvHBBMYNI04N2G/iDjCjA4yeeuopc1RGtWrVli5dilEZI0eOTPzgm7LwKSa+cuUKGrFkyZIaNWrg1T/rRBhBYpVVEAEREAEREAEREAERCD0Chw4dwrQPZr88puLNly9feHj4sWPHrF6jXKiQ5+8iUBK1sTyYBXOYboUKFSy9fPnyWD/Oqga9wPI3XifBu4FIWeMFO7xphxcGzc17vgyv4ySIgAiIgAiIgAiIgAikBAHkiYPyzzAQEFubR0ycOXNmJEyRwTV7iOQuynXr1vXoMBTLBrvwjp23jcchmNytcOHCu3btsnREoSVKlLCqQS8kkifGYI7bbrtt2TL6d/2gN0YORUAEREAEREAEREAE0hIBTMT2/9u7FzCnqnv942sEh4s4A0K5jSKXQgERKFAQpIAVQaT+0fpQ8YJIPVi1Wi6nWOUg0uIpYotFlMrRU8EbglilWgUPpYJVEAREqhVQRAe5IzAREBCc/y9sZ5vJvGEmJJlc5puHB9Z+s7L23p+VZNYsVnaGDBnSqVOnzp07T5kyxa6t5q12uO666/Ly8rylDsOHD7cPyU2ePLl///6zZ89euXKlXeTXO0n7Gjib/d26datteiNgm1S2m12u2K5TYUs17Ppu7du3f/zxx9etW/fcc88ljqaUMbF9h/O2bdvsQ392BFdeeeXUqVNDl0gn7rBoGQEEEEAAAQQQQODkBY4vBT75h3uPLEMjNj7ctWvXuHHj7IN0Nni1z8N5Y0Ub6fqXE7ZrR8yaNWvs2LFjxoyxseW8efPsOr/eHl588UVvDG2bgwYNsr/9JcsjRow4dOiQXZHNxs02MrbZ5WbNmnmPSsTfpYyJCwu/XZ5tV2FL3LrmRJwbbSKAAAIIIIAAAggkWsC+TcNuYXtZvHhxaDLw+C008crXH7+VzL3ELk7sX584Up145aWMieO1G9pBAAEEEEAAAQQQKD8Bm+L9dmLzZHcbewsnu+fyf1wpn7GzxRx28w8rtOyHFBBAAAEEEEAAAQQQSGuBUuaJbe2ETWl7nzG0JR033XRT6LXYnn/++bQ+eQ4eAQQQQAABBBDITAGbJ/52VvNkT7EizROXMia2DxL6ivbNHX6ZAgIIIIAAAggggAACGSNQyph4xowZGXOqnAgCCCCAAAIIIFBRBOzixMwTR9PZpawnjqYp6iKAAAIIIIAAAgggkJYCpcwTp+U5cdAIIIAAAggggEAFF2CeOMonAPPEUYJRHQEEEEAAAQQQQCDjBJgnzrgu5YQQQAABBBBAAAGuOxHlc4B54ijBqI4AAggggAACCCCQcQJZod/enMpnFwgEcnNzC9a7nNOLH+afi2/6W1f4pZDCxyHl0OJ3QjeKyv8uKoT++8PQjZDyWSFlv7jELxUv/K34prd1uQo7qNCynIbijpe3irCxyILRqSr/hwotu0n97vSo/QZa4nZVicQLnlJ5pC8t36Iqf3tVwJB7Pw8phxazQzeKyjn9ikrF/10xv/j28a08kbl1KrQs7Dnp1VI87osILSxUefjXZBbVaaSUxz1TdHfIv2NDyqHFjaEbReWcokLYvy+FbR/fvFSFb6vQMvm6i/Tc7lVXtXJUhDP3iNAi+cqV3dFJN+B6q3yHCi2bqvJfqHCfCi17Q+U/UqFl6qXvqqrKddXLNljxTFH7pXwRWnSpelo8GRCVB7cVoUWb1oq8QGTBqI3K/1OFfVRomXwrbqkq71KhZUtV3kWFlslX9Feq8j9VaJl8sq2PULmpyuXZyde4PbqVfOFtV+1aVlPkC9UL7KIzRE2Lfq9epD9UdeW7hFW8Wj0DZ6pnoFXuqVqWr/2HVE3LfqBy9YoJ1utRPbR2IFCYm/tlQUFBTo465tCqiS9/M2Sq7HJivu5EoNDlHnUpcl6Jlov0ppno/dI+AggggAACCCCAAAKpIlA5VQ6E40AAAQQQQAABBBCIl8Axrk8cHSXzxNF5URsBBBBAAAEEEEAg8wSYJ868PuWMEEAAAQQQQKDCCxQ6Z3+4lVmAMXGZqaiIAAIIIIAAAgikiYAtnbA/Md5ibyHGAyjPh7N2ojy12RcCCCCAAAIIIIBAKgowT5yKvcIxIYAAAggggAACsQgwTxytHvPE0YpRHwEEEEAAAQQQQCDTBJgnzrQe5XwQQAABBBBAAAH7uhL5jSVRycTeQlS7S25l5omT68/eEUAAAQQQQAABBJIvwDxx8vuAI0AAAQQQQAABBOIrwHriaD2ZJ45WjPoIIIAAAggggAACmSbAPHGm9SjngwACCCCAAAIIsJ442ucA88TRilEfAQQQQAABBBBAINMEsgoL0+OL/wKBQG5ubsFsl1O9eB98r/imv/WFXwopNAwphxZPC90oKufkFJVC/g0EQjZCijmNQjaKijvzi0rF/91cfNPbOl2FLeqq1LmFO0V+gcjcDBVaNkDldcNwi+osPlhUCvlX/j4lJe1BlUIe6Be3+KXihf7dim8f39q0VIRS0uq1FnVdnaYqdS7wschlh26IpkObi1bdARVa1upmcceKh0Vo0Q4VyxeCMgs++Hr13F4Y4bn9ttqd7OiuqqZlkqJWhCfbfvVk+7dqufMZKrWso8pXqbCnCp1b9YLIO8oXmFXsJCq//HsRLhdZMLpV5XUjvPY/UK/9VuqtbfpW1a5zu1U8QoWWZav8Dyq8VoWW/Uvl/eXbh3Nz1Wfc5fOnfaTel//5OUQdxJ9V6Nzv9oj8K5EFo7vvFHfsnyjCp0QWjH6k8qoqtKxRW3HH/rUijPDm4TqIuvr92SqepSrLH1WnqpqW7VO5/HHQqJ+qalkdlT+tQsvaqFw94wMRXh1zVAPDIvzsKH56gUBhbu7egoKCHDl4UA0nLvOGTJ86p97ro9ttwLmznUuR84ru0KOvHeGNKfqGeAQCCCCAAAIIIIAAAmkqIH+lTtNz4bARQAABBBBAAAEEggL23y526YkYb+r/bmJsMnUfzjxx6vYNR4YAAggggAACCCBQPgKJHRO//vrrl156acOGDbOysubNm+efki1iHjduXIMGDapVq9a7d+8PP/zQv4sCAggggAACCCCAQIwCNsUblz8xHkYaPTyxY+IDBw60a9du2rRpYSL33Xff1KlTp0+fvnz58tNOO61v376HDh0Kq8MmAggggAACCCCAAALlI5DY9cT9jt/CzsQmiadMmTJ27NgBA4LXPnjiiSfq1atns8iDBg0Kq8kmAggggAACCCCAwEkI8D120aIldp5YHs2mTZu2b99uSya8e+0Ka126dFm2bFnJyocPH7brifi3khVIEEAAAQQQQAABBBCIXSAJY2IbENtx29ywf/RW9kI/8QoTJ060EbN3O+sseaXEsEewiQACCCCAAAIIIBC86ERc/lQcyiSMicuOe+edd9plor3b5s2Rvp6h7O1REwEEEEAAAQQQQAABIZDY9cRih87Vr1/f8h07dth1J7wKVm7fvn3JylWO30rmJAgggAACCCCAAAInEPAuOnGCCmW5i+sTl0Xp5Os0adLEhsWLFi3ymrDlwnb1ia5dI30t7MnviEcigAACCCCAAAIIIFAWgcTOE+/fv/+jjz7yjsM+WrdmzZozzjijUaNGI0aMuOeee5o3b27j47vuussuYHzZZZeV5XCpgwACCCCAAAIIIFCqgLeYuNRqJ65gjVScW2LHxCtXrrzgggs8zVGjRllhyJAhM2fOvP322+3SxTfeeOO+ffu6d+++YMGCqlWrVhx0zhQBBBBAAAEEEEAgpQQSOybu1auXXY245Anb19r99vit5F0kCCCAAAIIIIAAAjEKsJ44WsCUvu5EtCdDfQQQQAABBBBAAAEETkIgS87jnkRDiX6IfRTPLlRc8KbLqVF8V6cW3/S3PvVLIYWLq4dshBQXHgzZKCpe1KKoFPLvyxtCNkKKPUPKfrFGI79YrLAiv9imtxG8GkeJW6QVJY+UqGnB2IYiLdwqQouycnQu0yMBEcvfpyS7ePDx6IwId+xT+RcqbPvNypzw+468Fp7YdnakUw57Sh1/6H7l9q5oNRg1VXmD8SItVKHVy+omKruVKnQucETk0ievragZjNRXqedv0JXlk3CJqjvwUpU6t+Elka8XWTC69CJxx4aFIlQnEazWWtR1lXuI9Hevi9Ci7iruMVilltUU+ZEHRfhPkQWjDiqP9FLKVZUfVuG1KrRMfoz87AiVa/UTd+TPF+FTIgtGQ1SeJ8/ZufzVorYCdjlDRc1g9KbIj6rnduUpoqZFO0eIPNIPmo9FXddRvTluku7Oqfcq10k1a1ltlX97rf+QeyO9vuS7rnz3sMbka79SyF784hy/VLxwefFNbytPha+q0LJL5Zt8+wi11RvTJPWkGhmhgWz1c/+Iev5YA9mdQ1sJBI7l5q6yq8fm5ET6WRNaPbFlb8hkZ65+vEW36/3H36JS5LyiO/Toa6uXbvSt8AgEEEAAAQQQQAABBNJXILHridPXhSNHAAEEEEAAAQTSV4DrTkTbd8wTRytGfQQQQAABBBBAAIFME2CeONN6lPNBAAEEEEAAAQRsDXuEZexR2MTeQhQ7S3ZV5omT3QPsHwEEEEAAAQQQQCDZAswTJ7sH2D8CCCCAAAIIIBBvAdYTRyvKPHG0YtRHAAEEEEAAAQQQyDQB5okzrUc5HwQQQAABBBBAgHniaJ8DzBNHK0Z9BBBAAAEEEEAAgUwTYJ4403qU80EAAQQQQAABBLjuRLTPAeaJoxWjPgIIIIAAAggggECmCTBPnGk9yvkggAACCCCAAAKsJ472OcA8cbRi1EcAAQQQQAABBBDINAHmiTOtRzkfBBBAAAEEEECgMB7fY2eNVJwb88QVp685UwQQQAABBBBAIP4C06ZNa9y4cdWqVbt06bJixQq5g7lz57Zs2dLqnHvuua+88opf5/nnn+/Tp0/t2rWzsrLWrFnj51bo1auXhf7tpptuCr037uWswsL0+B0gEAjk5uYW/NXlnFYcoXHxTX9rnV8KKewJKYcWB3cL3fqmvGqpCKuKLBg1VPlqFVpWU+Ud64p08U4RWiR3d6qq20Q1G6x4oaq9SIXOzVSH8ZWq21eFlslja3CPrv3yWJE3FZlrrELLZEfn5ejaOwM6L5nWfa1kFkz2XyDy90TmzmuhUucKN4g861IRWrTxJZE3ayTCDfkitKhFW5EvXitCi3plq7yxCnerMEJ2p+wk5yZerh6wX4URnq6ujqj8pnoOnz9e1LRog8rly9Yq/0G1MUmFX6jQshwp3DJC7c9Evk1hNlBPCXvwIvWs2CVaDUY/UfkBFdaKMMOSb599L/NNvlHIBg5FaPNjlV+k3uE3qHd4e/QZqoU6MrWajVVt+eMnwv/KLgiIFi6Wb/H2zNwqKlcSmfuXCi27LKonm2qkcK1Is64SoUXbnhG57OU66l3UHnxUvetWvk00a9HuB0V+WGQur7pKndt7UOTLRRaMuhfLAwGXm+cKCgpyciL8rClWPbEb3pDp/5wLGzGdxF7t5d7HlXJec+bMue6666ZPn24D4ilTptjYd/369XXrFht+LF26tEePHhMnTvzxj388a9asSZMmrV69uk2bNnZITz755KZNmxo2bDhs2LB33nmnffv2/nHamLhFixa//e1vvaR69eoJ5Y3wLuYfDgUEEEAAAQQQQAABBCII3H///TacHTp0aOvWrW1kbCPXxx57LKzuAw88cPHFF48ePbpVq1YTJkzo0KHDQw895NUZPHjwuHHjevfuHfYQb9Naq190S+iA2HbHmFh2ASECCCCAAAIIIJDGAt51J2L/2whs4tm/HT5cbO79yJEjq1at8ke0p5xyipWXLVsWBmeJX8fu6tu3b8k6YQ/xNp9++uk6derYjPKdd9558KCayJcPO6kwwv/mnFRbPAgBBBBAAAEEEEAgwwTOOuss/4zuvvvu8ePH+5u7d+8+duxYvXr1/MTK69aFryDavn17WB1L/IdEKlx99dVnn322LatYu3btr3/9a1uSYYuPI1WOPWdMHLshLSCAAAIIIIAAAqklYEvx5Wr8qI7Sa2Hz5s3+uoUqVapE1UIslW+88Ubv4faxvAYNGlx44YUbN25s1qxZLG2e4LGsnTgBDnchgAACCCCAAAIVXcAGxP4tbExsCxsqVaq0Y8cO38jKtgDY3/QKlpRaJ+whYZv2AT5LPvroo7A8jpuMieOISVMIIIAAAggggEBKCMS+kthr4cQnk52d3bFjx0WLFnnVvv76ayt37do17FGW+HXsroULF5asE/aQsE3vMm02WxyWx3GTtRNxxKQpBBBAAAEEEECgYgmMGjVqyJAhnTp16ty5s12L7cCBA3YNCiOwC7Tl5eXZ9desPHz48J49e06ePLl///6zZ89euXLlI4884jHt2bMnPz9/69bgpQZtxbD97V1nwpZJ2FXbLrnkErt0sa0nHjlypF3NrW3btt6jEvE3Y+JEqNImAggggAACCCCQTIGyzPKWenzWSKm3K6+8cteuXXY9NfvYnF1deMGCBd7H6Wyka5eh8B7erVs3G+COHTt2zJgxzZs3nzdvnndxYrv3xRdf9MbQVh40aJD97X2Mz2ag//73v3uDbPuQ3xVXXGEP91pL0N+MiRMES7MIIIAAAggggECFELj1+C3sVBcvXhyaDDx+C0288vXHbyVzGwcvWbKkZJ64hDFx4mxpGQEEEEAAAQQQSI5AHK87kZwTKPe98hm7cidnhwgggAACCCCAAAIpJsA8cYp1CIeDAAIIIIAAAgjELGDzxGVZDXzi/cR+heMTt59S9zJPnFLdwcEggAACCCCAAAIIJEGAeeIkoLNLBBBAAAEEEEAgoQKsJ46Wl3niaMWojwACCCCAAAIIIJBpAlmFhYVpcU6BQCA3N7egYGxOTtViB1wY4WJ1WU2LVftmo68KLXtf5er7A3cGryktbnUvEqE7X4WWnSfywotFmHW5CC368gWRVztDhIE9IrRILjKqqeu6rM7iji0rRJgn2Z3b+7GoXKuFCC3av0HkNRqKcFuE7mjwlKjsglcCV7dFIty7VIS1WovQoiP/Fnm2pLhO1AxGb4p87UIRWlT8FfBNnRbDVOWzVWiZ2l3+fF1ZPlWajFSVlaTVO7JWVM5WHSrqeVFHdU8NFTp39BmRV+4nwjURTrm97OhDooVgtE/lqpPyIzxdGw0ULayYK0KLaqu42f+qdI4KLVPXNjpyRFfOVm6ujai89/citKjWQyp/QoWW1RP5qpdEWF1kwahVB3HH3tUijPh2d4Go7Aao0LnXR4i8x2ARuuDX0qrb7SpsqULL/p/IHxwvwtsku1UcIyq7C1Xo3Bb1gyZPPdkC/6FbUG+N7jz1o8r11C245Sq/RoX2s0M9CdVr0R3UDbgc2fvyTdBaeCO0lUCgMDe3sKCgwL4DOTRPStkbMs1yLtILpexHZVRXO5ci51X2wz65mqec3MN4FAIIIIAAAggggAACGSPAeuKM6UpOBAEEEEAAAQQQ+EbA5rcjTXGX3Sj2Fsq+r6TXZJ446V3AASCAAAIIIIAAAggkWYB54iR3ALtHAAEEEEAAAQTiLsB1J6IlZZ44WjHqI4AAAggggAACCGSaAPPEmdajnA8CCCCAAAIIIMB64mifA8wTRytGfQQQQAABBBBAAIFME2CeONN6lPNBAAEEEEAAAQSYJ472OcCYOFox6iOAAAIIIIAAAqkuYF/JZh+zi/GWHt/rFuNJFj2ctRNFEvyLAAIIIIAAAgggUFEFmCeuqD3PeSOAAAIIIIBA5gqwdiLavmWeOFox6iOAAAIIIIAAAghkmgDzxJnWo5wPAggggAACCCDAd3ZE+xxgnjhaMeojgAACCCCAAAIIZJoA88SZ1qOcDwIIIIAAAgggwHriaJ8DWYWF6XGdjUAgkJubW1DQMSenUvGTPLv4pr/1sl8KKXQJKYcU818L2Sgq1iwqhP6bMzB0K6RcI6TsF9/1S8UKa1YX2/Q22t8lQrdOhZbJX2b2icpr54vQoraNRL47X4QWVVXxMyocdpFKLauj8nNUaNmLIn95hQj7NxShRfu3irxGNxEGI+X20r9F5R+LLBhlDVN3/FmE70e4MM45PURl94kKnfuN6qaRqm6O6uVgxe+J2tsWitCiBrJPr1SV5YvOKvZUlceo0LL2Kv9MhX1VaJl8vqru2H9Qt1BDau7WlfOfFHkj9WQrXCpqWrRLxaeq0LJa8tgOidpfPixCi6rJp+uNuvLLPxB5/34iPBLhreZtUdedn6NS5xYGRH7RPBHuvUyEFn2q4qYqzFF9ZBU3qW5q0lA1Ydl3Rb7ldRFWEVkwqqMwXf8ItdWr5nWF1mN2hBYWqVy+vqxifVVZhqepms5tHCvyZvJ9aYCoGYzUc9u9H6GyemdzT0eoLGP5s/Xnsqor3k2BwIHc3AEFBQU5ORGe3hFaSUTsDZmm2ss95ta/dO6XzqXIecV8NqU0ILu/lMdwNwIIIIAAAggggEAqCxxzzv7EeIu9hRgPoDwffkp57ox9IYAAAggggAACCCCQggLME6dgp3BICCCAAAIIIIBATAK2Vs/+xHiLvYUYD6A8H848cXlqsy8EEEAAAQQQQACBVBRgnjgVe4VjQgABBBBAAAEEYhFgPXG0eswTRytGfQQQQAABBBBAAIFME2CeONN6lPNBAAEEEEAAAQRsKXDsV41gPTFPJAQQQAABBBBAAAEEKpAA88QVqLM5VQQQQAABBBCoIAI2xRv7LG/sLaSRNuuJ06izOFQEEEAAAQQQQACBhAgwT5wQVhpFAAEEEEAAAQSSKMB1J6LFZ544WtOvgeUAACeZSURBVDHqI4AAAggggAACCGSaAPPEmdajnA8CCCCAAAIIIMB64mifA8wTRytGfQQQQAABBBBAAIFME0i7eeL9zlUq1glb5hbb9Dfy7vSLIYW8kHJIsdFjIRt+capf+rbw+h+/LYeWejQM3fqmvGarCC06W8brVLpRhc59sFrkjUXm6qswmNUUd9QR2fHoHHHHsKMidI1V6NzaR0XeNtKvZPeLyv3ridB9rkLnauwW+f6lIrSoxhki7yIy97EKLftcnV3nwaL2OftEaNGml0R+UGTB6AKV59ws0vcfFqFF9fJF3qCbCC0KLBR5jsicOyBTd3SEyN8TWTBqX1vdsV2EexW71aulDm6L0tTvEtbEJLG7SK+lRtmq8iERZqk+snp11dPV/VW0EIyWq1yhVfuDqmnZ8yp/V4XO9R+qcvUWtn2+qunc+fKtOFdXvki+oqeJyrWmiNCiWqtUvl6FY1To3K4fi/yrCG/mLdQbaV5n0YKT7ynO7X5QVK7TRoQWrQqIXF8X4DpR06J5R0SuTiJYramo6xp9oNIhKnSuWQuRr9ogwo4fidCiDep51UK+6Ky2et29qU75/Nv07lw9lavBQLBe2ItR/kxU7ZVXxnriaKUjDUqibYf6CCCAAAIIIIAAAgikq0DazROnKzTHjQACCCCAAAIIlJsA88TRUjNPHK0Y9RFAAAEEEEAAAQQyTSA5Y+Lx48dnhdxatmyZaa6cDwIIIIAAAgggkDwBW2oelz/JO4Py3nPS1k6cc845f//7373TrVw5aYdR3t7sDwEEEEAAAQQQQCD1BJI2GLVxcP36Ea+JkHpQHBECCCCAAAIIIJA2AjZJbEuKY7xZIxXnlpy1E+b74YcfNmzYsGnTptdcc01+fr4UP3z4cCDkJusQIoAAAggggAACCCAQo0ByxsRdunSZOXPmggULHn744U2bNv3whz/84osvSp7JxIkTc4tuZ511VskKJAgggAACCCCAAAIlBbzrTsT+d8mWMzVJzpi4X79+AwcObNu2bd++fV955ZV9+/Y9++yzJYnvvPPOgqLb5s2bS1YgQQABBBBAAAEEEEAgdoGkrSf2D71mzZotWrT46CPxHTZVjt/8mhQQQAABBBBAAAEEyiLgXXSiLDVPUIf1xCfAif9d+/fv37hxY4MGDeLfNC0igAACCCCAAAIIIFAGgeSsnfjVr361ZMmSTz75ZOnSpZdffnmlSpWuuuqqMhwtVRBAAAEEEEAAAQRKF4h9JbHXQul7ypQayVk78dlnn9kg+PPPP//Od77TvXv3t956ywqZQsp5IIAAAggggAACCKSZQHLGxLNnz04zJw4XAQQQQAABBBBIHwHWE0fbV8lZOxHtUVIfAQQQQAABBBBAAIHECWQVFhYmrvU4tmzf3WGXKi4oOD0nJ6t4s/uLb/pbv/NLIYUlIeWQ4pb5IRtFxbzbikoh/+59MGQjpHgwpOwX87r5xeKFt4pvelvdRfj+6yK06JyGIt+0VYRNovm1Z0uED5jmNRUtL/xYhN8XWTCqqvIaH6rUspoqnyrCFRNEaFHnoSr/RIWWfaryZio8qkLndr8m8jqXi/DNF0Ro0fk5Kn9EhZbdLvJt+SJs0FaEwaiGyvNUaFlLkW9S8qeLisGozhR1h7j84vFq56vKL6vwfRVa9jORfzBDhPJpafWaqNdXQL2+rLJsRL7TRHotXii7abs44GAkmx4jKkd6slUSdd15ET7RseEZUbuFfH1F+l7SaaIFd6UKLfuryBfvFGEnkQWjzSpvVV2lEV7Orqeq3FiFlqkXowxfjvDa7z9StLzhjyK0qMVDIn/gVhEOV+8/wXrfFZXdn1VoWUeV11GhfBlYxc9U5ZYiXBzhZ6v8KTFMveVaozsvEC3Lzj8kKgajOuqH3Qfqh51VbjUwtJVA4Kvc3Hl2/dicHPl+Hlo34WVvyHSLc1Vi3tVh5/7kXIqcV8xnU0oDkd6kS3kYdyOAAAIIIIAAAgggkDECyVlPnDF8nAgCCCCAAAIIIJCCAnG5aoQ1UnFuzBNXnL7mTBFAAAEEEEAAgfgLTJs2rXHjxlWrVu3SpcuKFSvkDubOnduyZUurc+6559p3GPt1nn/++T59+tSuXTsrK2vNmjV+7hdsla99/7HdO2/ePD9MRIExcSJUaRMBBBBAAAEEEEimQKFz3qUnYvnbGin1NmfOnFGjRt19992rV69u165d3759d+7cGfYo+z4KuwjvDTfc8M4771x2/Pbee+95dQ4cOGCX5Z00aVLYQ/zNKVOm2IDY30xcgTFx4mxpGQEEEEAAAQQQyHCB+++/f9iwYUOHDm3duvX06dOrV6/+2GOPhZ3zAw88cPHFF48ePbpVq1YTJkzo0KHDQw9985nRwYMHjxs3rnfv3mEP8TZt5njy5MklG5SVYwwZE8cIyMMRQAABBBBAAIGUE/DWE8f+t52YXcjCvx0+bNei+PZ25MiRVatW+SPaU045xcrLli37tsbxkiV+HQtsLrlknbCH2ObBgwevvvpqW5hRv36kK9uUfNDJJ4yJT96ORyKAAAIIIIAAAhkvcNZZZ9n1cL3bxIkTQ8939+7dx44dq1evnh9aefv28KtJWlJqHb8FvzBy5Mhu3boNGDDATxJa4LoTCeWlcQQQQAABBBBAIAkCcbzuxObNm/3rLlepEvtVj8uk8eKLL/7jH/+w9cdlqh2PSswTx0ORNhBAAAEEEEAAgQwVsAGxfwsbE9epU6dSpUo7duzwT93KJZc6WFJqHb8Fr2AD4o0bN9asWbPy8ZuFV1xxRa9evcKqxXGTMXEcMWkKAQQQQAABBBBICYFYLjcR+tgTn0x2dnbHjh0XLVrkVfv666+t3LVr17BHWeLXsbsWLlxYsk7YQ+644461a9faZ+y8m937xz/+ccaMGWHV4rjJ2ok4YtIUAggggAACCCBQsQTsQmxDhgzp1KlT586d7bppdm01uwaFEVx33XV5eXne+uPhw4f37NnTriDRv3//2bNnr1y58pFHHvGY9uzZk5+fv3XrVttcv369/W2Tyv7Nq+P93ahRoyZNmoQm8S0zJo6vJ60hgAACCCCAAALJF4jjeuITn8yVV165a9cuu56afZCuffv2CxYs8D5OZyNduwyF91j7qNysWbPGjh07ZsyY5s2b27dvtGnTxrvL1g17Y2jbHDRokP1tlzoeP368d295/s2YuDy12RcCCCCAAAIIIJBpArcev4Wd1eLFi0OTgcdvoYlXvv74rWQelti32YUlcd9kTBx3UhpEAAEEEEAAAQSSLOCtCY7xIKyRinPjM3YVp685UwQQQAABBBBAAAEtkFUOc9F6z1Gm9gUqdrHogoIf5uSEzW1/sx4lvL38B8MT2250swiD0V9U3l+Fr6rQsnYqf1OFzuUHRN7oAhG++ZoILTpf/jJTVVXuokLLVqn8GhVatl/kR54U4XMiC0ZX91N3NFahc3sfFnmtXSJ0kc7uClV5nQot66vy20X4wUERWpSn4pzpKv3mk7nhd+2cG57Ydt3WIgxGHVUuKe5TNS07U+Xhl1gvqrO7qBD67w2hG0Xls4sKxf8NjCi+fXwrJ/gJDHHbqD5TfEBUdG07qNSy5Sq/RIWRnvDylCP0nZOvO3kMQ9QxWPa0yiN8adODK0Tl22aK0EW6yv0vVeU5KrSsp8qDH4IpcatZIjke7FwrcvkGZvXqZIvKrrEKx6jQMvkWLd/hL4zQgnSTb5j21vioaKTGRSJ0R1Xo3JevibzaMBFatEjtbp+qe0UPlVr2nsoj/Bh1n4nKj34sQvkmavUaNRWVj6gWPhEVg9HpKo/wTuyajVS1NZCqaZl653dyMGCVi/1MCQS+ys1dUFBQYNcsi9B4+cXekOmnzslXVFTHccS5Z51LkfOK6shPonKkd6aTaIqHIIAAAggggAACCCCQlgJhc65peQ4cNAIIIIAAAggggECogC0FtktPxHizRirOjXniitPXnCkCCCCAAAIIIICAFmCeWLuQIoAAAggggAAC6StgU7yxz/LG3kIaATJPnEadxaEigAACCCCAAAIIJESAeeKEsNIoAggggAACCCCQRAFbTBz7xGfsK5KTKBDtrmPninaP1EcAAQQQQAABBBBAILUEmCdOrf7gaBBAAAEEEEAAgdgFmCeO1pB54mjFqI8AAggggAACCCCQaQLME2daj3I+CCCAAAIIIIAA152I9jnAmDhaMeojgAACCCCAAAKpLsDaiWh7iLUT0YpRHwEEEEAAAQQQQCDTBJgnzrQe5XwQQAABBBBAAAHWTkT7HGCeOFox6iOAAAIIIIAAAghkmgDzxJnWo5wPAggggAACCCBg88Sxf+NGhfpu57QbE39Q4mtZIpxCVflyeFWmzk1V+W9VuF+Flp0v8sB8EVp0QMY1RHr+pSIMRt8V+Yo/inDzayK06IpuKtdqzi0RlbMHi7D6kyIMRpHkVfVa41U6RoWHVGjZIpGvWS1Ci9p/qvLGImw1SoTB6EaVyydVnqrpXN2rVB6hOzbMEJXPUPI7RMVgdM5n6o5OKrTsryq/QoRHNojQopwzVP6yCp1r1lbki9eK0DVToWU/E/mmhSJs0lKEEaNV+p4Pdor8/0Tmhqt3iWDFaap2hOf2bcrn5etFC/1HizAYyefV0QiVP1f5OSLcEuHtLq+DqOxuUaFlc0Ser/qukXx92aNrixbcRhWqfQXrPaYqR8hq/E3dcbUKJXuUY5YLLxIt71Y+rpKoGYz+onL1crZ6b+0RlYfdJcKFE0RoUaMBIv+n+lF1YTdRMxhdJ/K/3CRCi5rtU/njKozw/uOGqMq7VWjZluL5seKbbKWfQIQBZfqdCEeMAAIIIIAAAggg8I2ADdKzYsaoUCN91hPH/HyhAQQQQAABBBBAAIE0F2CeOM07kMNHAAEEEEAAAQRKCNhS4NhXA8feQonjSt2AeeLU7RuODAEEEEAAAQQQQKB8BJgnLh9n9oIAAggggAACCJSfAOuJo7VmnjhaMeojgAACCCCAAAIIZJoA88SZ1qOcDwIIIIAAAgggwDxxtM8B5omjFaM+AggggAACCCCAQKYJME+caT3K+SCAAAIIIIAAAlx3ItrnAPPE0YpRHwEEEEAAAQQQQCDTBJgnzrQe5XwQQAABBBBAAAHWE0f7HGCeOFox6iOAAAIIIIAAAghkmgDzxJnWo5wPAggggAACCCBQGI/vsbNGKs6NeeKK09ecKQIIIIAAAggggIAWyCosTI/fAQKBQG5ubkHBD3Nyis9tb3tNn1mDS1XeRoXOBSaKPCdHhO58FTq3ar7IO3YTYTBqpvIuItx5qwgtqttC5d8T4f6XRGhRtoqzm6rUuaMfi7zyUBG6nip07svrRV5JZMEo+2Z1x3YVRsr6qjseU6FlR0W+e7UIPxVZMOpYV91xjQi//KMILbJlXyVv60tGx5OOsvN+p2pHOuULReWdD4rQorojVf6RCs9UoWVPq7y9Cp2b+brIq4rMDVChZbLyclW5kwotq9xD3SHPwiqerSqr3ncbVU3L1qlcnoZzf9oqKt9ykQjdKhXa290eked0FqFFq1aIvOOdInSfqdAy9Z6w7T905a9U3KiRSuVr3Lltj4rKDZ4SofuzCi1TBxyx715WjRwS4d6DIrSo1j0qj9B3hS+IylnTRej2qdCyd1UuXx5WUT3n87uKFuQ7mNV7TtR1V6swr7pKLWuscvn+YxXlW5D62eoivL1+qd75q8nXl3NvLgw9tsABl9vXFRQU5OjBQ2jdhJe9IVM75yL9mC37EVjf2pMmRc6r7Id9cjWZJz45Nx6FAAIIIIAAAgggkDkClTPnVDgTBBBAAAEEEEAAgeMCkabvo+KJSyNR7TGJlZknTiI+u0YAAQQQQAABBBBICQHmiVOiGzgIBBBAAAEEEEAgjgJfO5cVc3PWSMW5MU9ccfqaM0UAAQQQQAABBBDQAswTaxdSBBBAAAEEEEAgfQXishQ4Lo2kiyHzxOnSUxwnAggggAACCCCAQKIEmCdOlCztIoAAAggggAACyRKIyxRvXBpJlkC0+2WeOFox6iOAAAIIIIAAAghkmgDzxJnWo5wPAggggAACCCDAdSeifQ4wTxytGPURQAABBBBAAAEEMk2AeeJM61HOBwEEEEAAAQQQiMulhePSSLr0BfPE6dJTHCcCCCCAAAIIIIBAogSYJ06ULO0igAACCCCAAALJEojLFG9cGkmWQLT7ZZ44WjHqI4AAAggggAACCGSaQFZhYWFanFMgEMjNzS0oqJOTEzaO36+P//WDIu/RSITB6BaRH71DhJUvFWEw2qjyQyq07EaRb1O7i/QLWt5o0cKa34uwqciC0akqr3azSi07KvI3HxXh+S1EGIw6qnyLCi1rpnKFuekZVdO5JhepfLgKnSv8scj/LjLXW4WRss/VHepZGazXqJ+ovXi+CC3qpuLs21T6ZxU6N1sdx6C2urL7ROWNVXiOCi0bpfInVGiZOua56oA7RWigyTBxR6F6umYNFjWD0XaV71Chc0fWijxbYc5UNe3B16vKmt25LQGxu3oic5X/V6WWPS3yja+J0KLTVfyFCpvNVKlzu68X+WkiC0bVOos7AitEGCnKUS+PvUtFdfWcClbLu1dUdn9SoWVnqvwzFU5VoXNvXSby89RzWNTzovfVPetU6Fz+HpE3UmjBet8Tld2rKjxfhZapV82W10Vl+Ry2epXVm/mRhaIFi7IvUHljFf5FhRFeXw11XZc1PvSOQOBQbu69BQUFOTk5oXlSyt6QKc+5sAHTSRyMDUO2OJci53USxx/VQ2Lnimp3VEYAAQQQQAABBBBAIOUEWE+ccl3CASGAAAIIIIAAAjEKHLP/B42xCeci/Xd1zA2nYgPJnCeeNm1a48aNq1at2qVLlxUrovnfsVSU5JgQQAABBBBAAAEE0lUgaWPiOXPmjBo16u677169enW7du369u27c+fOdFXkuBFAAAEEEEAAgVQSsCneuPxJpXNK7LEkbUx8//33Dxs2bOjQoa1bt54+fXr16tUfe+yxxJ4rrSOAAAIIIIAAAgggoASSMyY+cuTIqlWrevf+5mP8p5xyipWXLVumjpAMAQQQQAABBBBAIDoBW08clz9l2WtZVsPOnTu3ZcuWtmL23HPPfeWVV/xmn3/++T59+tSuXTsrK2vNmjV+boWf//znzZo1q1at2ne+850BAwasWxfhgiqhj4mhnJwx8e7du48dO1av3rcXX7Hy9u3h1z86fPiwXU/Ev8VwmjwUAQQQQAABBBBAIP4CZVkNu3Tp0quuuuqGG2545513Ljt+e++997xDOXDgQPfu3SdNmlTyyDp27DhjxowPPvjg1VdftWsH29DZRo8lq8UrSc6YuIxHP3HiRLsmsXc766yzyvgoqiGAAAIIIIAAAhVcwBYTxz5PbI2UeivLatgHHnjg4osvHj16dKtWrSZMmNChQ4eHHnrIa3nw4MHjxo3z1w6E7u7GG2/s0aOHXY/B6t9zzz2bN2/+5JNPQivEt5ycMXGdOnUqVaq0Y8e3V/O2cv369cPO7c4777TLRHs3gwi7l00EEEAAAQQQQACBJAqUcTWsrY8NHfXalRWiWjFrc8k2YdykSZOEzpAmZ0ycnZ1t8+GLFi3yevHrr7+2cteuXcM6tUqVKvZ9MP4t7F42EUAAAQQQQAABBKRAXC464c0T+6tYrWDrWkN3V8bVsLY+ttQVs6HN+uU//elPNY7f5s+fv3DhQhtA+nfFvZCcMbGdhl2I7dFHH3388cdtmcjNN99svwHYNSjifno0iAACCCCAAAIIIBCLgM3OFi1lzbV1rbE0Fe1jr7nmGluCvGTJkhYtWvz0pz89dOhQtC2UvX7Svsfuyiuv3LVrl60gsV8d2rdvv2DBgtBfIMp+AtREAAEEEEAAAQQQCBOwxcRZYVH0m9434dn6VftPe+/R9n/4oc2UcTWsrY8tdcVsaLN+2RuLN2/e/LzzzqtVq9YLL7xgn9Xz741vIWnzxHYat95666effmqT8MuXL7evsovvidEaAggggAACCCCAQOwC/ipWK4SNicu4GtbWx/orZu14bBVEyRWzJz5Ou+6E3cJWbpz4IdHem7R54mgPlPoIIIAAAggggAACZRSwpcDxmic+8R5tNeyQIUM6derUuXPnKVOm+Kthr7vuury8PG+txfDhw3v27Dl58uT+/fvPnj175cqVjzzyiNfsnj178vPzt27dapvr16+3v21S2W4ff/yxXeXNrr9mFyf+7LPP7r33XrtQ8SWXXHLig4nl3rQZE9svB3aegUDJq4J48/olEA6USIKPL/lwr5pannJUtVD5K5VaZv9HUfIWze6+KPnw41/LqGIXKLbC/Zsq+1XVgAotO1XlXx1RqWXKQgtLB2tBuqlmg0cgD0O1INGsgYBs+WCw7ZI3+QzSZ1fywZETeWwRDsEF1NnJY7Adyj7Nlmjy3JyThxGI1HeyEVlZnUVQSD415QFbZbU7ecBSOOijWlatuixVM3jA8vkjTznCszVbVf4y2LS4aXl5xM7Js64mWnWVI+1PnZ1sVrUazGTlQITdycqKJ9jyV+oO+YQP1pY3dXayhQjH6wLqx0HwK3LlTe1OV5ZPYufky1w+h+X+g6E8hmieP/oN01qWLxBJEem1r45NPiXkc9gOobJqQR6XVc5WlfVZROVjTatbVrGnin32zCp5YxVVOwlZhJOM7kjK0kik1bA20rUvZfP2161bt1mzZo0dO3bMmDG2EGLevHlt2rTx7nrxxRf9T5QNGjTIwrvvvnv8+PH27R7//Oc/bZC9d+9eW15rF2WzixzXrVs3uhOIpnZWSvXfCY7cfkVI6AU4TrBr7kIAAQQQQAABBEoVsHW3Z555ZqnVEl3BPohmly0r+VVoJ7dfm7LdtGmTjVBP7uFp9Ki0GRPb9dpsXv3000+3r/6zS4HY+Dh0xXcaiVfkQ6Xj0rf36Tv6Ln0F0vTIedGlV8fZDOMXX3zRsGFDf2Y0ucdvw2K7cnBcjsFWDFeEAbFZpc3aCXuShf3u5a34jkt/00h5CtBx5akd333Rd/H1LM/W6Lvy1I7jvui4OGImuim7QkKid1H29m0UW0EGsmU3KbVmMq87UerBUQEBBBBAAAEEEEAAgXIQYExcDsjsAgEEEEAAAQQQQCClBSrZJ/tS+gAjHFylSpV69epVuXLarP2IcB4VLqbj0rfL6Tv6Ln0F0vTIedGlacdx2GkqkDafsUtTXw4bAQQQQAABBBBAIPUFWDuR+n3EESKAAAIIIIAAAggkVoAxcWJ9aR0BBBBAAAEEEEAg9QUYE6d+H3GECCCAAAIIIIAAAokVSL8x8bRp0xo3bmxX3evSpcuKFSsSy0PrMQjYV5z/4Ac/sK9ZsW9ivOyyy7wvMffas2uJ/+IXv6hdu3aNGjWuuOKKHTt2xLAfHppAAft+efuWnBEjRtBxCVSOa9Nbtmy59tpr7cVVrVq1c889d+XKlV7z9oUC48aNa9CggeW9e/f+8MMP47pbGotV4NixY3fddZd995h1ULNmzSZMmOB/yyx9Fysuj0egbAJpNiaeM2fOqFGj7IuwV69e3a5du759++7cubNsZ0qt8hZYsmSJDXzfeuuthQsXfvXVV3369Dlw4IB3ECNHjnzppZfmzp1rdezrCX/yk5+U98GxvzIIvP322//zP//Ttm1bvy4d51OkZmHv3r3nn3/+qaeeOn/+/H//+9+TJ0+uVauWd6j33Xff1KlTp0+fvnz58tNOO83ePO1X09Q8i4p5VJMmTXr44YcfeuihDz74wMrWXw8++CB9VzGfDJx10gTsF9A0unXu3NmGWd4B22/V9iWKNhmZRsdfYQ/V+9XFRsAmsG/fPvuZbQNiT8N+ANizf9myZRUWJzVP3L6ktHnz5vb7TM+ePYcPH07HpWY3hR3Vr3/96+7du4eFtvn111/Xr1//97//vXeXvQarVKnyzDPPlKxJkiyB/v37/+xnP/P3bjMF11xzjW3Sd74JBQQSLZBO88T2zd2rVq2y//XzfoGwb3u2so2lkvb7BDsus0BBQYHVPeOMM+xv60SbNvb7sWXLlo0aNaIfy2xZThXtl0/7Ie13Ex1XTu6x7ebFF1/s1KnTwIEDbcHS97///UcffdRrb9OmTdu3b/d7076B1tae8aKLDTvOj+7WrduiRYs2bNhg7b777rtvvPFGv379rEzfxRma5hCILJBO33mxe/dumxuuV6+efzpWXrdunb9JITUFbJ7DFqTaf+m2adPGjtB+NmdnZ9esWdM/WutHC/1NCkkXmD17ti1PsrUToUdCx4VqpGb5448/tv9/twVmY8aMse775S9/aa+1IUOGeK+vsDdPXnQp1Yl33HFHIBCwOQL7ng77Sfff//3fNk9sR0jfpVQ3cTCZLZBOY+LM7okMPjubcXzvvfds2iODzzGTTm3z5s22WMJWTdgnWTPpvCrCudjvnzZP/Lvf/c5O1uaJ7XVnC4htTFwRzj3dz/HZZ599+umnZ82adc4556xZs8bmEWxxIH2X7t3K8aeXQDqtnahTp479Ah16jQIr2yK59BKvaEd76623/u1vf3vttdfOPPNM79yty2wZjK1o9CnoR58iFQq2uMXWf3fo0MG+O91utgrcPptlBZtlpONSoYNOcAx2WYnWrVv7FVq1apWfn2+b3vskb56+TAoWRo8ebVPFgwYNsquFDB482D7Pap+Woe9SsKc4pAwWSKcxsf0nYMeOHW3FldcfNiNi5a5du2Zw96T1qdlaeBsQv/DCC//4xz/sAkP+uVgn2mfs/H60a7TZj2360fdJeuHCCy/817/+ZTNV3s3mHe3/cK1sBTou6b1z4gOwFUqhFz20xalnn322PcRegDYs9l909n/0dvUJXnQnxiznew8ePGgfkvF3ahNA9jOOvvNBKCBQHgKJ/hBffNu3ZY72cemZM2faZYZuvPFGW5Nqa63iuwtai5fAzTffbB/lWbx48baim73pe43fdNNN9rk6GyvbxVPtB7Pd4rVT2om7gH/dCWuZjos7b3wbtEu224y+LUW1yw/bf8RXr179qaee8nZhl5q2N8y//vWva9euHTBggI2Sv/zyy/jundZiEbBlEnl5efa/avahuueff97+X/T222+n72Ih5bEIRCvgon1A0uvbJRttOGVzxnZdNrv2bdKPhwOIJFDyV7oZM2Z4le2H8S233GJXTrWf2ZdffrmNmSM1Qp50gdAxMR2X9O4o9QDsyt/2YVabO7BPaz3yyCN+fZt0tK+EsAUwdpf9V4BNJ/t3UUgFAZu8t3X89tPN1vE3bdr0v/7rvw4fPuwdGH2XCh3EMVQEgSw7yZJjFxIEEEAAAQQQQAABBCqOwLerlyrOOXOmCCCAAAIIIIAAAgiECjAmDtWgjAACCCCAAAIIIFARBRgTV8Re55wRQAABBBBAAAEEQgUYE4dqUEYAAQQQQAABBBCoiAKMiStir3POCCCAAAIIIIAAAqECjIlDNSgjgAACCCCAAAIIVEQBxsQVsdc5ZwQQQAABBBBAAIFQAcbEoRqUEUAAAQQQQAABBCqiAGPiitjrnDMC6SVw/fXXX3bZZalzzKl2PKkjw5EggAAC6StQOX0PnSNHAIFMEsjKypKnc/fddz/wwAMJ+sbNxYsXX3DBBXv37q1Zs6bcOyECCCCAQAURYExcQTqa00Qg1QW2bdvmHeKcOXPGjRu3fv16b7PG8VuqHz3HhwACCCCQ5gKsnUjzDuTwEcgUgfpFt9zcXJszLtqqb0Pi0LUKvXr1uu2220aMGFGrVq169eo9+uijBw4cGDp06Omnn/7d7353/vz5vsd7773Xr18/e7hVGzx48O7du/27ZGHmzJk2W/zqq6+2atXKHnXxxRf7w/Rjx46NGjXK7q1du/btt98eOmn99ddfT5w4sUmTJtWqVWvXrt1zzz1njVuF3r179+3b16u5Z8+eM8880wb6cr+ECCCAAAKpIMCYOBV6gWNAAIEoBB5//PE6deqsWLHCBsc333zzwIEDu3Xrtnr16j59+tjY9+DBg9bWvn37fvSjH33/+99fuXLlggULduzY8dOf/rTUfdhj//CHPzz55JOvv/56fn7+r371K+8hkydPthHzY4899sYbb9gA94UXXvCbsgHxE088MX369Pfff3/kyJHXXnvtkiVLbExvB/n2229PnTrVat500015eXmMiX00CggggEAqCtg0BjcEEEAgdQRmzJhhU8WhxzNkyJABAwZ4Sc+ePbt37+6Vjx49etppp9k42Nv0pnWXLVtmmxMmTLAhspfb35s3b7b3X1uP4Sde4bXXXrPc1hPbpu3Xyh999JF317Rp02yC2Ss3aNDgvvvu88pfffWVTfp6x3Po0KHq1asvXbrUu8v+vuGGG6666ipv89lnn61ateodd9xhB7lhwwa/DgUEEEAAgRQUYD1xKv6iwjEhgMAJBNq2bevdW6lSJVvMcO6553qbNoS1ws6dO+3vd99918a7tgTCu8v7e+PGjS1atAhNwso2wG3WrJkX2jjYa6qgoMBG2126dPHyypUrd+rUyd7NbdMG0Da1fNFFF/ntHDlyxCanvU2bwLYZ5Xvvvffhhx9u3ry5X4cCAggggEAKCjAmTsFO4ZAQQOBEAqeeeqp/t61S8DetbLkt8LW/9+/ff+mll06aNMmvaQUb5oZuliz7Tdld1po38C1ZzU9sL1Z++eWXbWmEH1apUsUr23B51apVNnD/8MMP/XspIIAAAgikpgBj4tTsF44KAQRiEujQocNf/vKXxo0b27RuTA05Zws5bDC9fPnyHj16WFO2YMNGuta+lVu3bm0jYFt5bCs6Su7lP//zP0855RT72N8ll1zSv39/W99csg4JAggggECKCPAZuxTpCA4DAQTiKfCLX/zCPgxnS3vtg262ZMKuJmHXprDLR5zcPoYPH25LIObNm7du3bpbbrnFPsDntWMXu7DP4dlH6+wTdbYX+5zfgw8+aGW71yaP7TN5Tz/9tK2sGD16tC2JtlXLJ7d3HoUAAgggUA4CjInLAZldIIBAeQs0bNjwzTfftEGwfdLOFhzbtdvsSmo2a3tyx2EzvvZJPhvXdu3a1cbBl19+ud+OfZjvrrvusqtP2BXc7PJtNhS267Lt2rXLPmw3fvx4bzr5N7/5ja11tqtP+I+igAACCCCQagKlL5hLtSPmeBBAAAEEEEAAAQQQiK/ASc6axPcgaA0BBBBAAAEEEEAAgSQKMCZOIj67RgABBBBAAAEEEEgJAcbEKdENHAQCCCCAAAIIIIBAEgUYEycRn10jgAACCCCAAAIIpIQAY+KU6AYOAgEEEEAAAQQQQCCJAoyJk4jPrhFAAAEEEEAAAQRSQoAxcUp0AweBAAIIIIAAAgggkEQBxsRJxGfXCCCAAAIIIIAAAikhwJg4JbqBg0AAAQQQQAABBBBIogBj4iTis2sEEEAAAQQQQACBlBBgTJwS3cBBIIAAAggggAACCCRRgDFxEvHZNQIIIIAAAggggEBKCPx/eApolfrEbLoAAAAASUVORK5CYII=;clipPath=inset(5.08% 2.67% 5.08% 2.33%);" vertex="1" parent="1">
          <mxGeometry x="40" y="290" width="356.23" height="210" as="geometry" />
        </mxCell>
        <mxCell id="Ckq702j_ndM2lnB-2Poi-137" value="&lt;font style=&quot;font-size: 10px;&quot; face=&quot;Times New Roman&quot;&gt;Snapshot&lt;/font&gt;" style="text;html=1;align=center;verticalAlign=middle;resizable=0;points=[];autosize=1;strokeColor=none;fillColor=none;" vertex="1" parent="1">
          <mxGeometry x="190" y="490" width="60" height="30" as="geometry" />
        </mxCell>
        <mxCell id="Ckq702j_ndM2lnB-2Poi-138" value="&lt;font style=&quot;font-size: 10px;&quot; face=&quot;Times New Roman&quot;&gt;Frequency index&lt;/font&gt;" style="text;html=1;align=center;verticalAlign=middle;resizable=0;points=[];autosize=1;strokeColor=none;fillColor=none;rotation=-90;" vertex="1" parent="1">
          <mxGeometry x="-5" y="365" width="90" height="30" as="geometry" />
        </mxCell>
        <mxCell id="Ckq702j_ndM2lnB-2Poi-139" value="&lt;font face=&quot;Times New Roman&quot; style=&quot;font-size: 10px;&quot;&gt;Magnitude&lt;/font&gt;" style="text;html=1;align=center;verticalAlign=middle;resizable=0;points=[];autosize=1;strokeColor=none;fillColor=none;rotation=90;" vertex="1" parent="1">
          <mxGeometry x="370" y="365" width="70" height="30" as="geometry" />
        </mxCell>
        <mxCell id="Ckq702j_ndM2lnB-2Poi-140" value="&lt;font face=&quot;Times New Roman&quot;&gt;(a)&lt;/font&gt;" style="text;html=1;align=center;verticalAlign=middle;whiteSpace=wrap;rounded=0;" vertex="1" parent="1">
          <mxGeometry x="190" y="250" width="60" height="30" as="geometry" />
        </mxCell>
        <mxCell id="Ckq702j_ndM2lnB-2Poi-141" value="&lt;font face=&quot;Times New Roman&quot;&gt;(b&lt;/font&gt;&lt;span style=&quot;font-family: &amp;quot;Times New Roman&amp;quot;; background-color: transparent; color: light-dark(rgb(0, 0, 0), rgb(255, 255, 255));&quot;&gt;)&lt;/span&gt;" style="text;html=1;align=center;verticalAlign=middle;whiteSpace=wrap;rounded=0;" vertex="1" parent="1">
          <mxGeometry x="190" y="510" width="60" height="30" as="geometry" />
        </mxCell>
      </root>
    </mxGraphModel>
  </diagram>
</mxfile>
